{"glyphs":{"0":{"ha":1269,"x_min":69,"x_max":1200,"o":"m 899 471 q 946 451 926 471 q 965 404 965 432 q 946 357 965 376 q 899 338 926 338 l 371 338 q 324 357 343 338 q 304 404 304 376 q 324 451 304 432 q 371 471 343 471 l 899 471 l 899 471 m 914 235 q 992 252 961 235 q 1040 294 1022 269 q 1063 349 1057 319 q 1069 404 1069 379 q 1063 459 1069 429 q 1040 514 1057 489 q 992 556 1022 539 q 914 574 961 574 l 356 574 q 277 556 307 574 q 230 514 247 539 q 206 459 213 489 q 200 404 200 429 q 206 349 200 379 q 230 294 213 319 q 277 252 247 269 q 356 235 307 235 l 914 235 l 914 235 m 1200 404 q 1183 298 1200 351 q 1132 201 1165 244 q 1051 129 1099 157 q 944 101 1004 101 l 311 101 q 210 129 254 101 q 134 201 165 157 q 86 299 103 244 q 69 404 69 353 q 87 510 69 457 q 138 608 104 564 q 218 679 171 651 q 325 707 265 707 l 958 707 q 1060 676 1015 704 q 1135 604 1104 647 q 1183 508 1167 561 q 1200 404 1200 456 z "},"1":{"ha":456,"x_min":69,"x_max":386,"o":"m 253 521 q 237 558 253 542 q 200 574 221 574 l 136 574 q 89 593 108 574 q 69 640 69 613 q 89 688 69 668 q 136 707 108 707 l 199 707 q 272 692 238 707 q 331 653 306 678 q 372 594 357 628 q 386 521 386 560 l 386 168 q 367 121 386 140 q 319 101 347 101 q 272 121 292 101 q 253 168 253 140 l 253 521 z "},"2":{"ha":1225,"x_min":69,"x_max":1156,"o":"m 1089 235 q 1136 215 1117 235 q 1156 168 1156 196 q 1136 121 1156 140 q 1089 101 1117 101 l 136 101 q 89 121 108 101 q 69 168 69 140 l 69 301 q 82 367 69 336 q 117 422 94 399 q 170 458 140 444 q 236 471 200 471 l 974 471 q 1010 485 994 471 q 1026 522 1026 500 q 1010 558 1026 543 q 974 574 994 574 l 136 574 q 89 593 108 574 q 69 640 69 613 q 89 688 69 668 q 136 707 108 707 l 968 707 q 1041 692 1007 707 q 1101 653 1075 678 q 1141 594 1126 628 q 1156 522 1156 561 q 1141 450 1156 483 q 1101 392 1126 417 q 1041 352 1075 367 q 968 338 1007 338 l 244 338 q 214 321 226 335 q 201 286 201 307 l 201 235 l 1089 235 l 1089 235 z "},"3":{"ha":1233,"x_min":69,"x_max":1164,"o":"m 228 404 q 247 451 228 432 q 294 471 267 471 l 985 471 q 1021 486 1006 471 q 1036 524 1036 501 q 1021 559 1036 544 q 985 574 1006 574 l 136 574 q 89 593 108 574 q 69 640 69 613 q 89 688 69 668 q 136 707 108 707 l 978 707 q 1051 693 1017 707 q 1110 654 1085 679 q 1149 596 1135 629 q 1164 524 1164 563 q 1152 458 1164 489 q 1119 404 1140 428 q 1164 285 1164 351 q 1149 213 1164 246 q 1110 154 1135 179 q 1051 115 1085 129 q 978 101 1017 101 l 136 101 q 89 121 108 101 q 69 168 69 140 q 89 215 69 196 q 136 235 108 235 l 985 235 q 1021 249 1006 235 q 1036 285 1036 264 q 1021 322 1036 307 q 985 338 1006 338 l 294 338 q 247 357 267 338 q 228 404 228 376 z "},"4":{"ha":1228,"x_min":69,"x_max":1158,"o":"m 203 467 q 219 430 203 444 q 256 415 235 415 l 1025 415 l 1025 640 q 1044 688 1025 668 q 1092 707 1064 707 q 1139 688 1119 707 q 1158 640 1158 668 l 1158 168 q 1139 121 1158 140 q 1092 101 1119 101 q 1045 121 1065 101 q 1025 168 1025 140 l 1025 282 l 261 282 q 188 297 222 282 q 126 336 153 311 q 85 394 100 361 q 69 467 69 428 l 69 640 q 89 688 69 668 q 136 707 108 707 q 183 688 164 707 q 203 640 203 668 l 203 467 l 203 467 z "},"5":{"ha":1233,"x_min":69,"x_max":1164,"o":"m 204 574 l 204 506 q 216 481 204 492 q 247 471 228 471 l 978 471 q 1051 456 1017 471 q 1110 417 1085 442 q 1149 358 1135 392 q 1164 285 1164 324 q 1149 213 1164 246 q 1110 154 1135 179 q 1051 115 1085 129 q 978 101 1017 101 l 136 101 q 89 121 108 101 q 69 168 69 140 q 89 215 69 196 q 136 235 108 235 l 985 235 q 1021 249 1006 235 q 1036 285 1036 264 q 1021 322 1036 307 q 985 338 1006 338 l 240 338 q 179 351 210 338 q 125 388 149 364 q 86 444 101 411 q 71 519 71 478 l 71 644 q 92 694 71 682 q 160 707 114 707 l 1056 707 q 1103 688 1083 707 q 1122 640 1122 668 q 1103 593 1122 613 q 1056 574 1083 574 l 204 574 z "},"6":{"ha":1271,"x_min":69,"x_max":1201,"o":"m 503 338 q 478 319 489 333 q 468 286 468 306 q 478 253 468 267 q 503 236 488 239 l 503 235 l 1026 235 q 1056 250 1043 235 q 1069 286 1069 265 q 1058 322 1069 307 q 1026 338 1046 338 l 503 338 m 1035 471 q 1100 458 1069 471 q 1153 422 1131 444 q 1189 367 1176 399 q 1201 301 1201 336 l 1201 271 q 1189 205 1201 236 q 1153 151 1176 174 q 1100 115 1131 128 q 1035 101 1069 101 l 503 101 l 496 101 l 311 101 q 210 129 254 101 q 134 201 165 157 q 86 299 103 244 q 69 404 69 353 q 87 510 69 457 q 138 608 104 564 q 218 679 171 651 q 325 707 265 707 l 1135 707 q 1182 688 1163 707 q 1201 640 1201 668 q 1182 593 1201 613 q 1135 574 1163 574 l 351 574 q 273 556 303 574 q 226 514 243 539 q 202 459 208 489 q 196 404 196 429 q 201 351 196 379 q 223 297 207 322 q 267 254 239 272 q 340 235 296 236 q 336 271 336 251 l 336 301 q 349 367 336 336 q 384 422 361 399 q 437 458 407 444 q 503 471 467 471 l 1035 471 z "},"7":{"ha":1225,"x_min":69,"x_max":1156,"o":"m 136 574 q 89 593 108 574 q 69 640 69 613 q 89 688 69 668 q 136 707 108 707 l 968 707 q 1041 692 1007 707 q 1101 653 1075 678 q 1141 594 1126 628 q 1156 522 1156 561 q 1140 444 1156 475 q 1099 392 1125 413 q 1039 358 1074 371 q 965 333 1004 344 l 207 110 q 188 104 196 107 q 171 101 181 101 q 122 120 143 101 q 100 168 100 139 q 115 208 100 192 q 151 232 131 225 l 983 469 q 1017 489 1007 478 q 1026 522 1026 500 q 1010 558 1026 543 q 974 574 994 574 l 136 574 l 136 574 z "},"8":{"ha":1225,"x_min":69,"x_max":1156,"o":"m 974 235 q 1010 250 994 235 q 1026 286 1026 265 q 1010 323 1026 308 q 974 338 994 338 l 250 338 q 214 324 229 338 q 199 288 199 310 q 215 251 199 267 q 251 235 231 235 l 974 235 m 251 574 q 215 558 231 574 q 199 522 199 543 q 215 485 199 500 q 251 471 231 471 l 975 471 q 1011 485 996 471 q 1026 521 1026 499 q 1010 558 1026 542 q 974 574 994 574 l 251 574 m 257 101 q 184 116 218 101 q 124 156 150 131 q 84 215 99 181 q 69 288 69 249 q 81 352 69 322 q 113 406 93 382 q 81 459 93 429 q 69 522 69 489 q 84 594 69 561 q 124 653 99 628 q 184 692 150 678 q 257 707 218 707 l 968 707 q 1041 692 1007 707 q 1101 653 1075 678 q 1141 594 1126 628 q 1156 521 1156 560 q 1144 456 1156 486 q 1113 403 1132 426 q 1144 349 1132 379 q 1156 286 1156 319 q 1141 214 1156 247 q 1101 156 1126 181 q 1041 116 1075 131 q 968 101 1007 101 l 257 101 z "},"9":{"ha":1225,"x_min":69,"x_max":1156,"o":"m 1156 640 q 1136 593 1156 613 q 1089 574 1117 574 l 251 574 q 215 558 231 574 q 199 522 199 543 q 215 485 199 500 q 251 471 231 471 l 989 471 q 1054 458 1024 471 q 1108 422 1085 444 q 1143 367 1131 399 q 1156 301 1156 336 l 1156 168 q 1136 121 1156 140 q 1089 101 1117 101 q 1042 121 1063 101 q 1022 168 1022 140 l 1022 286 q 1010 321 1022 307 q 979 338 997 335 l 257 338 q 184 352 218 338 q 124 392 150 367 q 84 450 99 417 q 69 522 69 483 q 84 594 69 561 q 124 653 99 628 q 184 692 150 678 q 257 707 218 707 l 1089 707 q 1136 688 1117 707 q 1156 640 1156 668 z "}," ":{"ha":625,"x_min":0,"x_max":0,"o":""}," ":{"ha":625,"x_min":0,"x_max":0,"o":""},".":{"ha":311,"x_min":69,"x_max":242,"o":"m 69 168 q 94 229 69 204 q 156 254 119 254 q 217 229 192 254 q 242 168 242 204 q 217 107 242 132 q 156 82 192 82 q 94 107 119 82 q 69 168 69 132 z "},"p":{"ha":1225,"x_min":69,"x_max":1156,"o":"m 69 640 q 89 688 69 668 q 136 707 108 707 l 968 707 q 1041 692 1007 707 q 1101 653 1075 678 q 1141 594 1126 628 q 1156 522 1156 561 q 1141 450 1156 483 q 1101 392 1126 417 q 1041 352 1075 367 q 968 338 1007 338 l 246 338 q 215 321 228 335 q 203 286 203 307 l 203 168 q 183 121 203 140 q 136 101 163 101 q 89 121 108 101 q 69 168 69 140 l 69 301 q 82 367 69 336 q 117 422 94 399 q 170 458 140 444 q 236 471 200 471 l 974 471 q 1010 485 994 471 q 1026 522 1026 500 q 1010 558 1026 543 q 974 574 994 574 l 136 574 q 89 593 108 574 q 69 640 69 613 z "},"e":{"ha":1257,"x_min":69,"x_max":1188,"o":"m 69 640 q 89 688 69 668 q 136 707 108 707 l 1121 707 q 1168 688 1149 707 q 1188 640 1188 668 q 1168 593 1188 613 q 1121 574 1149 574 l 136 574 q 89 593 108 574 q 69 640 69 613 m 239 101 q 178 115 208 101 q 124 151 147 128 q 85 208 100 175 q 69 283 69 242 l 69 408 q 91 458 69 446 q 158 471 113 471 l 1090 471 q 1138 451 1118 471 q 1157 404 1157 432 q 1138 357 1157 376 q 1090 338 1118 338 l 203 338 l 203 269 q 215 245 203 256 q 246 235 226 235 l 1121 235 q 1168 215 1149 235 q 1188 168 1188 196 q 1168 121 1188 140 q 1121 101 1149 101 l 239 101 z "},"o":{"ha":1269,"x_min":69,"x_max":1200,"o":"m 915 235 q 993 252 963 235 q 1041 294 1024 269 q 1065 349 1058 319 q 1071 404 1071 379 q 1065 459 1071 429 q 1041 514 1058 489 q 993 556 1024 539 q 915 574 963 574 l 354 574 q 276 556 306 574 q 228 514 246 539 q 205 459 211 489 q 199 404 199 429 q 205 349 199 379 q 228 294 211 319 q 276 252 246 269 q 354 235 306 235 l 915 235 l 915 235 m 1200 404 q 1183 298 1200 351 q 1132 201 1165 244 q 1051 129 1099 157 q 944 101 1004 101 l 311 101 q 210 133 254 104 q 134 204 165 161 q 86 300 103 247 q 69 404 69 353 q 87 510 69 457 q 138 608 104 564 q 218 679 171 651 q 325 707 265 707 l 958 707 q 1060 676 1015 704 q 1135 604 1104 647 q 1183 508 1167 561 q 1200 404 1200 456 z "},"{":{"ha":5863,"x_min":69,"x_max":5793,"o":"m 2299 58 q 2306 89 2299 71 l 2697 875 q 2765 950 2721 921 q 2868 979 2810 979 q 2966 950 2922 979 q 3033 875 3010 921 l 3425 92 q 3435 58 3435 72 q 3417 10 3435 31 q 3371 -10 3399 -10 q 3308 28 3328 -10 l 2928 796 q 2904 823 2921 814 q 2868 832 2888 832 q 2808 796 2826 832 l 2429 38 q 2406 4 2422 18 q 2367 -10 2390 -10 q 2319 10 2339 -10 q 2299 58 2299 31 m 4840 101 q 4778 115 4808 101 q 4724 151 4747 128 q 4685 208 4700 175 q 4669 282 4669 242 l 4669 408 q 4692 458 4669 447 q 4758 469 4714 469 l 5694 469 q 5742 451 5722 469 q 5763 404 5763 432 q 5742 357 5763 376 q 5694 338 5722 338 l 4801 338 l 4801 268 q 4813 247 4801 257 q 4844 236 4825 236 l 5725 236 q 5773 216 5753 236 q 5793 168 5793 196 q 5773 121 5793 140 q 5725 101 5753 101 l 4840 101 m 3435 404 q 3452 510 3435 457 q 3503 608 3469 564 q 3583 679 3536 651 q 3692 707 3631 707 l 5725 707 q 5773 688 5753 707 q 5793 640 5793 668 q 5773 592 5793 613 q 5725 572 5753 572 l 3718 572 q 3640 555 3669 572 q 3592 513 3610 538 q 3567 458 3574 488 q 3561 404 3561 429 q 3567 350 3561 379 q 3592 295 3574 321 q 3640 253 3610 269 q 3718 236 3669 236 l 4507 236 q 4552 216 4532 236 q 4572 168 4572 196 q 4552 121 4572 140 q 4507 101 4532 101 l 3676 101 q 3575 129 3619 101 q 3499 201 3531 157 q 3451 299 3468 244 q 3435 404 3435 353 m 258 338 q 184 352 218 338 q 124 392 150 367 q 84 452 99 418 q 69 524 69 486 q 84 596 69 563 q 124 654 99 629 q 184 693 150 679 q 258 707 218 707 l 2208 707 q 2281 692 2247 707 q 2341 653 2315 678 q 2381 594 2367 628 q 2396 522 2396 561 q 2381 450 2396 483 q 2341 392 2367 417 q 2281 352 2315 367 q 2208 338 2247 338 l 1485 338 q 1454 321 1467 335 q 1442 286 1442 307 l 1442 168 q 1422 121 1442 140 q 1376 101 1403 101 q 1329 121 1349 101 q 1310 168 1310 140 l 1310 301 q 1322 367 1310 336 q 1358 422 1335 399 q 1410 458 1381 444 q 1476 471 1440 471 l 2214 471 q 2251 485 2235 471 q 2267 522 2267 500 q 2251 558 2267 543 q 2214 574 2235 574 l 251 574 q 215 560 231 574 q 199 524 199 546 q 215 486 199 501 q 251 471 231 471 l 1024 471 q 1097 456 1063 471 q 1157 417 1132 442 q 1197 358 1182 392 q 1211 285 1211 324 q 1197 214 1211 247 q 1157 156 1182 181 q 1097 116 1132 131 q 1024 101 1063 101 l 181 101 q 133 121 153 101 q 113 168 113 140 q 133 216 113 196 q 181 236 153 236 l 1031 236 q 1067 249 1051 236 q 1083 285 1083 263 q 1067 322 1083 307 q 1031 338 1051 338 l 258 338 l 258 338 z "},"b":{"ha":1225,"x_min":69,"x_max":1156,"o":"m 974 235 q 1010 250 994 235 q 1026 286 1026 265 q 1010 323 1026 308 q 974 338 994 338 l 203 338 l 203 269 q 215 245 203 256 q 246 235 226 235 l 974 235 m 69 640 q 89 688 69 668 q 136 707 108 707 l 968 707 q 1041 692 1007 707 q 1101 653 1075 678 q 1141 594 1126 628 q 1156 521 1156 560 q 1144 456 1156 486 q 1113 403 1132 426 q 1144 349 1132 379 q 1156 286 1156 319 q 1141 214 1156 247 q 1101 156 1126 181 q 1041 116 1075 131 q 968 101 1007 101 l 239 101 q 178 115 208 101 q 124 151 147 128 q 85 208 100 175 q 69 283 69 242 l 69 408 q 91 458 69 446 q 158 471 113 471 l 975 471 q 1011 485 996 471 q 1026 521 1026 499 q 1010 558 1026 542 q 974 574 994 574 l 136 574 q 89 593 108 574 q 69 640 69 613 z "},"d":{"ha":1271,"x_min":69,"x_max":1201,"o":"m 917 235 q 994 252 964 235 q 1042 294 1025 269 q 1066 349 1060 319 q 1072 404 1072 379 q 1066 459 1072 429 q 1042 514 1060 489 q 994 556 1025 539 q 917 574 964 574 l 136 574 q 89 593 108 574 q 69 640 69 613 q 89 688 69 668 q 136 707 108 707 l 946 707 q 1053 679 1006 707 q 1133 608 1100 651 q 1184 510 1167 564 q 1201 404 1201 457 q 1185 300 1201 353 q 1137 204 1168 247 q 1061 133 1106 161 q 960 101 1017 104 l 136 101 q 89 121 108 101 q 69 168 69 140 l 69 404 q 89 451 69 432 q 136 471 108 471 q 183 451 164 471 q 203 404 203 432 l 203 235 l 917 235 z "},"f":{"ha":1257,"x_min":69,"x_max":1188,"o":"m 69 640 q 89 688 69 668 q 136 707 108 707 l 1121 707 q 1168 688 1149 707 q 1188 640 1188 668 q 1168 593 1188 613 q 1121 574 1149 574 l 136 574 q 89 593 108 574 q 69 640 69 613 m 69 408 q 91 458 69 446 q 158 471 113 471 l 1090 471 q 1138 451 1118 471 q 1157 404 1157 432 q 1138 357 1157 376 q 1090 338 1118 338 l 203 338 l 203 168 q 183 121 203 140 q 136 101 164 101 q 89 121 108 101 q 69 168 69 140 l 69 408 z "},"g":{"ha":1271,"x_min":69,"x_max":1201,"o":"m 436 404 q 456 451 436 432 q 503 471 475 471 l 1035 471 q 1100 458 1069 471 q 1153 422 1131 444 q 1189 367 1176 399 q 1201 301 1201 336 l 1201 271 q 1189 205 1201 236 q 1153 151 1176 174 q 1100 115 1131 128 q 1035 101 1069 101 l 311 101 q 210 129 254 101 q 134 201 165 157 q 86 299 103 244 q 69 404 69 353 q 87 510 69 457 q 138 608 104 564 q 218 679 171 651 q 325 707 265 707 l 1135 707 q 1182 688 1163 707 q 1201 640 1201 668 q 1182 593 1201 613 q 1135 574 1163 574 l 356 574 q 277 556 307 574 q 230 514 247 539 q 206 459 213 489 q 200 404 200 429 q 206 349 200 379 q 230 294 213 319 q 277 252 247 269 q 356 235 307 235 l 1029 235 q 1059 250 1046 235 q 1072 286 1072 265 q 1060 322 1072 307 q 1029 338 1049 338 l 503 338 q 456 357 475 338 q 436 404 436 376 z "},"H":{"ha":1226,"x_min":68,"x_max":1156,"o":"m 1156 168 q 1136 121 1156 140 q 1089 101 1117 101 q 1042 121 1061 101 q 1022 168 1022 140 l 1022 200 q 1003 269 1021 242 q 960 311 985 296 q 906 332 935 326 q 853 338 876 338 l 617 338 l 613 338 l 607 338 l 371 338 q 284 349 328 338 q 201 382 240 360 l 201 168 q 182 121 201 140 q 135 101 163 101 q 88 121 107 101 q 68 168 68 140 l 68 640 q 88 688 68 668 q 135 707 107 707 q 182 688 163 707 q 201 640 201 668 l 201 617 q 219 544 201 572 q 262 499 236 515 q 317 477 288 483 q 371 471 346 471 l 611 471 l 613 471 l 617 471 l 853 471 q 940 460 896 471 q 1022 426 983 449 l 1022 640 q 1042 688 1022 668 q 1089 707 1061 707 q 1136 688 1117 707 q 1156 640 1156 668 l 1156 168 z "},"i":{"ha":272,"x_min":69,"x_max":203,"o":"m 203 168 q 183 121 203 140 q 136 101 164 101 q 89 121 108 101 q 69 168 69 140 l 69 640 q 89 688 69 668 q 136 707 108 707 q 183 688 164 707 q 203 640 203 668 l 203 168 l 203 168 z "},"j":{"ha":1261,"x_min":69,"x_max":1192,"o":"m 203 335 q 214 298 203 315 q 244 266 225 281 q 288 243 263 251 q 343 235 314 235 l 903 235 q 978 250 949 235 q 1026 289 1008 265 q 1051 340 1043 313 q 1058 393 1058 368 l 1058 640 q 1078 688 1058 668 q 1125 707 1099 707 q 1172 688 1153 707 q 1192 640 1192 668 l 1192 404 q 1174 298 1192 351 q 1122 201 1156 244 q 1039 129 1088 157 q 931 101 990 101 l 303 101 q 213 121 256 101 q 139 173 171 140 q 88 248 107 206 q 69 335 69 290 q 90 382 69 363 q 136 401 110 401 q 183 382 164 401 q 203 335 203 363 z "},"l":{"ha":1225,"x_min":69,"x_max":1156,"o":"m 260 101 q 186 116 221 101 q 126 156 151 131 q 85 214 100 181 q 69 286 69 247 l 69 640 q 89 688 69 668 q 136 707 108 707 q 183 688 163 707 q 203 640 203 668 l 203 286 q 219 250 203 265 q 256 235 235 235 l 1089 235 q 1136 215 1117 235 q 1156 168 1156 196 q 1136 121 1156 140 q 1089 101 1117 101 l 260 101 l 260 101 z "},"t":{"ha":1228,"x_min":69,"x_max":1158,"o":"m 1092 707 q 1139 688 1119 707 q 1158 640 1158 668 q 1139 593 1158 613 q 1092 574 1119 574 l 681 574 l 681 168 q 661 121 681 140 q 614 101 642 101 q 567 121 586 101 q 547 168 547 140 l 547 574 l 131 574 q 88 595 106 576 q 69 640 69 614 q 89 688 69 668 q 136 707 108 707 l 1092 707 l 1092 707 z "},"~":{"ha":0,"x_min":-272,"x_max":272,"o":"m 206 707 q 253 688 233 707 q 272 640 272 668 q 253 593 272 613 q 206 574 233 574 l -211 574 q -254 595 -236 576 q -272 640 -272 614 q -253 688 -272 668 q -206 707 -233 707 l 206 707 l 206 707 z "},"c":{"ha":1271,"x_min":69,"x_max":1201,"o":"m 69 404 q 87 510 69 457 q 138 608 104 564 q 218 679 171 651 q 325 707 265 707 l 1135 707 q 1182 688 1163 707 q 1201 640 1201 668 q 1182 593 1201 613 q 1135 574 1163 574 l 354 574 q 276 556 306 574 q 228 514 246 539 q 205 459 211 489 q 199 404 199 429 q 205 349 199 379 q 228 294 211 319 q 276 252 246 269 q 354 235 306 235 l 1135 235 q 1182 215 1163 235 q 1201 168 1201 196 q 1182 121 1201 140 q 1135 101 1163 101 l 311 101 q 210 129 254 101 q 134 201 165 157 q 86 299 103 244 q 69 404 69 353 z "},"q":{"ha":1269,"x_min":69,"x_max":1200,"o":"m 771 286 q 783 251 771 265 q 811 235 794 238 l 915 235 q 993 252 963 235 q 1041 294 1024 269 q 1065 349 1058 319 q 1071 404 1071 379 q 1065 459 1071 429 q 1041 514 1058 489 q 993 556 1024 539 q 915 574 963 574 l 354 574 q 276 556 306 574 q 228 514 246 539 q 205 459 211 489 q 199 404 199 429 q 205 349 199 379 q 228 294 211 319 q 276 252 246 269 q 354 235 306 235 l 474 235 q 521 216 501 235 q 540 169 540 197 q 521 122 540 142 q 474 103 501 103 l 474 101 l 311 101 q 210 133 254 104 q 134 204 165 161 q 86 300 103 247 q 69 404 69 353 q 87 510 69 457 q 138 608 104 564 q 218 679 171 651 q 325 707 265 707 l 958 707 q 1060 676 1015 704 q 1135 604 1104 647 q 1183 508 1167 561 q 1200 404 1200 456 q 1183 298 1200 351 q 1132 201 1165 244 q 1051 129 1099 157 q 944 101 1004 101 l 804 101 q 738 115 768 101 q 685 151 708 128 q 650 205 663 174 q 638 271 638 236 l 638 339 q 657 386 638 367 q 704 406 676 406 q 751 386 731 406 q 771 339 771 367 l 771 286 l 771 286 z "},"n":{"ha":1218,"x_min":69,"x_max":1149,"o":"m 1015 640 q 1035 688 1015 668 q 1082 707 1054 707 q 1129 688 1110 707 q 1149 640 1149 668 l 1149 236 q 1110 140 1149 179 q 1015 101 1072 101 q 977 107 996 101 q 943 122 958 113 l 307 511 q 263 535 281 526 q 235 544 246 544 q 208 518 214 544 q 203 442 203 492 l 203 168 q 183 121 203 140 q 136 101 164 101 q 89 121 108 101 q 69 168 69 140 l 69 572 q 108 668 69 629 q 203 707 146 707 q 241 701 222 707 q 275 686 260 696 l 911 297 q 955 273 938 282 q 983 264 972 264 q 1010 290 1004 264 q 1015 367 1015 317 l 1015 640 l 1015 640 z "},"a":{"ha":1133,"x_min":69,"x_max":1064,"o":"m 188 126 q 136 101 167 101 q 89 121 108 101 q 69 168 69 140 q 83 208 69 193 l 421 663 q 483 715 444 694 q 567 735 522 735 q 646 717 608 735 q 707 667 683 699 l 1044 215 q 1058 194 1053 206 q 1064 168 1064 182 q 1044 121 1064 140 q 997 101 1025 101 q 944 128 964 101 l 621 560 q 597 584 611 571 q 567 597 582 597 q 537 584 551 597 q 514 560 522 571 l 188 126 z "},"v":{"ha":1133,"x_min":69,"x_max":1064,"o":"m 946 682 q 997 707 967 707 q 1044 688 1025 707 q 1064 640 1064 668 q 1050 600 1064 615 l 1049 599 l 713 146 q 649 94 688 114 q 567 74 611 74 q 488 92 525 74 q 426 142 451 110 l 89 593 q 75 615 81 603 q 69 640 69 626 q 89 688 69 668 q 136 707 108 707 q 189 681 169 707 l 513 249 q 537 224 522 238 q 567 211 551 211 q 597 224 582 211 q 619 249 611 238 l 946 682 z "},"m":{"ha":1311,"x_min":69,"x_max":1242,"o":"m 1242 168 q 1222 121 1242 140 q 1175 101 1203 101 q 1128 121 1147 101 q 1108 168 1108 140 l 1108 471 q 1101 528 1108 528 q 1063 490 1096 528 l 757 143 q 713 112 739 122 q 656 101 686 101 q 599 112 625 101 q 554 143 572 122 l 249 490 q 210 528 217 528 q 203 471 203 528 l 203 168 q 183 121 203 140 q 136 101 164 101 q 89 121 108 101 q 69 168 69 140 l 69 574 q 101 668 69 629 q 189 707 133 707 q 249 690 222 707 q 297 650 275 674 l 617 286 q 634 272 624 279 q 656 264 644 264 q 677 272 667 264 q 694 286 688 279 l 1013 650 l 1014 650 q 1061 692 1033 676 q 1122 707 1089 707 q 1210 668 1178 707 q 1242 574 1242 629 l 1242 168 z "},"z":{"ha":1257,"x_min":69,"x_max":1188,"o":"m 136 574 q 89 593 108 574 q 69 640 69 613 q 89 688 69 668 q 136 707 108 707 l 1054 707 q 1149 668 1110 707 q 1188 574 1188 629 q 1160 491 1188 526 q 1089 444 1132 456 l 310 260 q 276 244 276 251 q 336 235 276 235 l 1121 235 q 1168 215 1149 235 q 1188 168 1188 196 q 1168 121 1188 140 q 1121 101 1149 101 l 203 101 q 108 140 147 101 q 69 235 69 179 q 93 314 69 278 q 157 360 117 350 l 949 546 q 971 560 971 553 q 921 574 971 574 l 136 574 z "},"y":{"ha":1256,"x_min":69,"x_max":1186,"o":"m 694 168 q 675 121 694 140 q 628 101 656 101 q 581 121 600 101 q 561 168 561 140 l 561 338 q 458 351 508 338 q 353 395 408 365 q 236 472 299 425 q 96 588 174 519 q 77 611 85 597 q 69 640 69 625 q 89 688 69 668 q 136 707 108 707 q 161 701 150 707 q 183 688 172 696 q 333 566 272 610 q 441 501 393 522 q 532 476 489 481 q 629 471 575 471 q 725 475 683 471 q 814 500 767 479 q 922 565 861 521 q 1072 688 982 608 q 1119 707 1096 707 q 1167 688 1147 707 q 1186 640 1186 668 q 1178 611 1186 625 q 1160 588 1171 597 q 1019 473 1083 521 q 899 395 956 425 q 792 351 843 365 q 694 338 742 338 l 694 168 l 694 168 z "},"'":{"ha":272,"x_min":69,"x_max":203,"o":"m 203 538 q 183 490 203 510 q 136 471 164 471 q 89 490 108 471 q 69 538 69 510 l 69 640 q 89 688 69 668 q 136 707 108 707 q 183 688 164 707 q 203 640 203 668 l 203 538 l 203 538 z "},"x":{"ha":1256,"x_min":69,"x_max":1186,"o":"m 1160 588 q 1029 480 1089 525 q 917 404 969 435 q 1028 328 969 374 q 1160 221 1086 283 q 1178 197 1171 211 q 1186 168 1186 183 q 1167 121 1186 140 q 1119 101 1147 101 q 1072 121 1096 101 q 923 242 983 199 q 815 307 863 286 q 724 333 767 328 q 626 338 681 338 l 596 338 q 511 330 550 336 q 427 301 472 324 q 324 236 382 279 q 183 121 267 193 q 161 107 172 113 q 136 101 150 101 q 89 121 108 101 q 69 168 69 140 q 77 197 69 183 q 96 221 85 211 q 226 328 167 283 q 339 403 286 372 q 227 478 286 433 q 96 588 168 524 q 77 611 85 597 q 69 640 69 625 q 89 688 69 668 q 136 707 108 707 q 161 701 150 707 q 183 688 172 696 q 326 569 268 613 q 431 505 385 526 q 519 477 478 483 q 608 471 560 471 l 629 471 q 725 475 683 471 q 814 500 767 479 q 922 565 861 521 q 1072 688 982 608 q 1119 707 1096 707 q 1167 688 1147 707 q 1186 640 1186 668 q 1178 611 1186 625 q 1160 588 1171 597 z "},":":{"ha":311,"x_min":69,"x_max":242,"o":"m 69 557 q 94 618 69 593 q 156 643 119 643 q 217 618 192 643 q 242 557 242 593 q 217 496 242 521 q 156 471 192 471 q 94 496 119 471 q 69 557 69 521 m 69 168 q 94 229 69 204 q 156 254 119 254 q 217 229 192 254 q 242 168 242 204 q 217 107 242 132 q 156 82 192 82 q 94 107 119 82 q 69 168 69 132 z "},"w":{"ha":1406,"x_min":69,"x_max":1336,"o":"m 69 640 q 89 688 69 668 q 136 707 108 707 q 183 688 164 707 q 203 640 203 668 l 203 404 q 209 349 203 379 q 233 294 215 319 q 280 252 250 269 q 358 235 310 235 l 681 235 q 647 317 658 274 q 636 404 636 361 l 636 640 q 656 688 636 668 q 703 707 675 707 q 750 688 731 707 q 769 640 769 668 l 769 404 q 776 350 769 379 q 798 295 782 321 q 842 252 814 269 q 915 235 871 235 l 1047 235 q 1125 252 1094 235 q 1173 294 1156 269 q 1197 349 1190 319 q 1203 404 1203 379 l 1203 640 q 1222 688 1203 668 q 1269 707 1242 707 q 1317 688 1297 707 q 1336 640 1336 668 l 1336 404 q 1319 298 1336 351 q 1268 201 1301 244 q 1188 129 1235 157 q 1081 101 1140 101 l 311 101 q 210 129 254 101 q 134 201 165 157 q 86 299 103 244 q 69 404 69 353 l 69 640 l 69 640 z "},"r":{"ha":1225,"x_min":69,"x_max":1156,"o":"m 963 338 q 1039 287 1000 314 q 1118 228 1078 260 q 1144 202 1133 217 q 1156 168 1156 188 q 1136 121 1156 140 q 1089 101 1117 101 q 1042 121 1065 101 q 925 201 985 163 q 801 271 865 240 q 667 319 736 301 q 522 338 597 338 l 246 338 q 215 321 228 335 q 203 286 203 307 l 203 168 q 183 121 203 140 q 136 101 163 101 q 89 121 108 101 q 69 168 69 140 l 69 301 q 83 367 69 336 q 118 422 96 399 q 171 458 140 444 q 238 471 201 471 l 974 471 q 1010 485 994 471 q 1026 522 1026 500 q 1010 558 1026 543 q 974 574 994 574 l 136 574 q 89 593 108 574 q 69 640 69 613 q 89 688 69 668 q 136 707 108 707 l 968 707 q 1041 692 1007 707 q 1101 653 1075 678 q 1141 594 1126 628 q 1156 522 1156 561 q 1141 450 1156 483 q 1101 392 1126 417 q 1041 352 1075 367 q 968 338 1007 338 l 963 338 l 963 338 z "},"/":{"ha":550,"x_min":69,"x_max":481,"o":"m 194 135 q 169 110 185 118 q 135 101 153 101 q 88 122 107 101 q 69 168 69 142 q 78 201 69 186 l 356 674 q 381 699 365 690 q 415 707 397 707 q 462 687 443 707 q 481 640 481 667 q 472 607 481 621 l 194 135 l 194 135 z "},"}":{"ha":5828,"x_min":69,"x_max":5758,"o":"m 1246 975 l 1086 975 l 1086 947 l 1199 947 q 1235 940 1225 947 q 1246 913 1246 932 l 1246 893 q 1235 872 1246 878 q 1199 865 1225 865 l 1050 865 l 1050 892 l 1208 892 l 1208 917 l 1094 917 q 1050 951 1050 917 l 1050 963 q 1060 990 1050 983 q 1094 996 1071 996 l 1246 996 l 1246 975 m 1403 865 l 1403 996 l 1444 996 l 1444 865 l 1403 865 m 493 865 l 493 996 l 532 996 l 532 865 l 493 865 m 1633 892 l 1776 892 l 1776 975 l 1633 975 l 1633 892 m 1971 865 l 1971 996 l 2019 996 l 2142 906 l 2142 996 l 2181 996 l 2181 865 l 2131 865 l 2008 956 l 2008 865 l 1971 865 m 892 975 l 732 975 l 732 947 l 844 947 q 881 940 871 947 q 892 913 892 932 l 892 893 q 881 872 892 878 q 844 865 871 865 l 696 865 l 696 892 l 853 892 l 853 917 l 740 917 q 706 924 715 917 q 696 951 696 932 l 696 963 q 706 990 696 983 q 740 996 715 996 l 892 996 l 892 975 m 92 865 l 92 996 l 139 996 l 208 893 l 276 996 l 326 996 l 326 865 l 289 865 l 289 960 l 225 865 l 192 865 l 126 956 l 126 865 l 92 865 m 1593 963 q 1602 990 1593 983 q 1638 996 1611 996 l 1769 996 q 1805 990 1796 996 q 1814 963 1814 983 l 1814 896 q 1805 872 1814 878 q 1769 865 1796 865 l 1638 865 q 1602 872 1611 865 q 1593 896 1593 878 l 1593 963 m 2283 58 q 2289 90 2283 78 l 2683 875 q 2749 949 2706 921 q 2850 978 2792 978 q 2949 949 2904 978 q 3017 875 2993 921 l 3404 96 q 3412 78 3408 86 q 3415 58 3415 69 q 3395 13 3415 32 q 3347 -7 3375 -7 q 3286 29 3307 -7 l 2907 799 q 2884 824 2900 814 q 2850 835 2868 835 q 2814 824 2829 835 q 2792 799 2799 814 l 2415 39 q 2390 6 2406 19 q 2350 -7 2374 -7 q 2303 13 2322 -7 q 2283 58 2283 32 m 4811 101 q 4749 115 4779 101 q 4696 151 4719 128 q 4658 208 4672 175 q 4643 282 4643 242 l 4643 407 q 4664 458 4643 444 q 4731 471 4685 471 l 5661 471 q 5708 450 5689 471 q 5728 403 5728 429 q 5708 356 5728 375 q 5661 336 5689 336 l 4772 336 l 4772 269 q 4785 244 4772 254 q 4815 235 4797 235 l 5693 235 q 5739 215 5719 235 q 5758 168 5758 196 q 5739 121 5758 140 q 5693 101 5719 101 l 4811 101 m 3415 403 q 3433 511 3415 457 q 3483 609 3450 565 q 3564 680 3517 653 q 3671 707 3611 707 l 5693 707 q 5739 688 5719 707 q 5758 642 5758 668 q 5739 594 5758 614 q 5693 574 5719 574 l 3697 574 q 3619 556 3649 574 q 3572 513 3589 539 q 3549 458 3556 488 q 3543 403 3543 428 q 3549 349 3543 378 q 3572 294 3556 319 q 3619 251 3589 268 q 3697 235 3649 235 l 4479 235 q 4526 215 4507 235 q 4546 168 4546 196 q 4526 121 4546 140 q 4479 101 4507 101 l 3657 101 q 3556 129 3600 101 q 3480 201 3511 157 q 3432 298 3449 244 q 3415 403 3415 351 m 256 336 q 183 351 217 336 q 124 390 149 365 q 84 449 99 415 q 69 524 69 483 q 84 596 69 563 q 124 654 99 629 q 183 693 149 679 q 256 707 217 707 l 2193 707 q 2265 692 2231 707 q 2324 653 2299 678 q 2363 594 2349 628 q 2378 522 2378 561 q 2363 448 2378 482 q 2324 389 2349 414 q 2265 350 2299 364 q 2193 336 2231 336 l 1475 336 q 1445 319 1457 333 q 1433 286 1433 306 l 1433 168 q 1414 121 1433 140 q 1367 101 1394 101 q 1320 121 1339 101 q 1301 168 1301 140 l 1301 299 q 1315 365 1301 333 q 1350 419 1328 396 q 1403 457 1372 443 q 1468 471 1433 471 l 2199 471 q 2235 485 2221 471 q 2250 522 2250 499 q 2235 559 2250 544 q 2199 574 2221 574 l 247 574 q 212 560 228 574 q 196 524 196 546 q 212 485 196 500 q 247 471 228 471 l 1019 471 q 1091 456 1057 471 q 1150 416 1125 442 q 1190 356 1175 390 q 1204 283 1204 322 q 1190 213 1204 246 q 1150 154 1175 179 q 1091 115 1125 129 q 1019 101 1057 101 l 178 101 q 131 121 150 101 q 113 168 113 140 q 131 215 113 196 q 178 235 150 235 l 1025 235 q 1061 249 1046 235 q 1076 283 1076 264 q 1061 321 1076 306 q 1025 336 1046 336 l 256 336 l 256 336 z "},"k":{"ha":1225,"x_min":69,"x_max":1156,"o":"m 201 471 l 522 471 q 664 490 594 471 q 799 539 733 508 q 926 608 865 569 q 1042 688 986 647 q 1089 707 1065 707 q 1136 688 1117 707 q 1156 640 1156 668 q 1144 606 1156 621 q 1118 581 1133 592 q 1049 528 1082 553 q 982 483 1015 504 q 913 443 949 463 q 838 404 878 424 q 913 365 878 385 q 982 325 949 346 q 1049 280 1015 304 q 1118 228 1082 256 q 1144 202 1133 217 q 1156 168 1156 188 q 1136 121 1156 140 q 1089 101 1117 101 q 1042 121 1065 101 q 924 201 985 163 q 799 271 864 240 q 664 319 733 301 q 522 338 594 338 l 201 338 l 201 168 q 182 121 201 140 q 136 101 163 101 q 89 121 108 101 q 69 168 69 140 l 69 640 q 89 688 69 668 q 135 707 108 707 q 182 688 163 707 q 201 640 201 668 l 201 471 z "},"!":{"ha":272,"x_min":50,"x_max":222,"o":"m 50 168 q 75 229 50 204 q 136 254 100 254 q 197 229 172 254 q 222 168 222 204 q 197 107 222 132 q 136 82 172 82 q 75 107 100 82 q 50 168 50 132 m 203 404 q 183 357 203 376 q 136 338 164 338 q 89 357 108 338 q 69 404 69 376 l 69 640 q 89 688 69 668 q 136 707 108 707 q 183 688 164 707 q 203 640 203 668 l 203 404 l 203 404 z "},"@":{"ha":1396,"x_min":174,"x_max":1222,"o":"m 613 338 q 581 322 593 338 q 569 286 569 307 q 583 250 569 265 q 613 235 596 235 l 789 235 l 789 236 q 814 253 804 239 q 824 286 824 267 q 813 319 824 306 q 789 338 803 333 l 613 338 m 307 275 q 288 228 307 247 q 240 208 268 208 q 193 228 213 208 q 174 275 174 247 l 174 404 q 191 510 174 457 q 242 608 208 564 q 322 679 275 651 q 429 707 369 707 l 967 707 q 1074 679 1026 707 q 1154 608 1121 651 q 1205 510 1188 564 q 1222 404 1222 457 q 1206 300 1222 353 q 1158 204 1189 247 q 1082 133 1126 161 q 981 101 1038 104 l 604 101 q 538 115 568 101 q 485 151 508 128 q 450 205 463 174 q 438 271 438 236 l 438 301 q 450 367 438 336 q 485 422 463 399 q 538 458 508 444 q 604 471 568 471 l 789 471 q 854 458 824 471 q 908 422 885 444 q 943 367 931 399 q 956 301 956 336 l 956 271 q 951 235 956 251 q 1024 254 996 236 q 1067 297 1051 272 q 1090 351 1083 322 q 1096 404 1096 379 q 1090 459 1096 429 q 1066 514 1083 489 q 1018 556 1049 539 q 940 574 988 574 l 456 574 q 378 556 407 574 q 333 514 349 539 q 313 459 318 489 q 307 404 307 429 l 307 275 l 307 275 z "},"u":{"ha":1269,"x_min":69,"x_max":1200,"o":"m 203 404 q 209 349 203 379 q 233 294 215 319 q 280 252 250 269 q 358 235 310 235 l 911 235 q 989 252 958 235 q 1037 294 1019 269 q 1060 349 1054 319 q 1067 404 1067 379 l 1067 639 q 1086 686 1067 667 q 1133 706 1106 706 q 1181 686 1161 706 q 1200 639 1200 667 l 1200 404 q 1183 298 1200 351 q 1132 201 1165 244 q 1051 129 1099 157 q 944 101 1004 101 l 311 101 q 210 133 254 104 q 134 204 165 161 q 86 300 103 247 q 69 404 69 353 l 69 639 q 89 686 69 667 q 136 706 108 706 q 183 686 164 706 q 203 639 203 667 l 203 404 l 203 404 z "},"|":{"ha":1271,"x_min":69,"x_max":1201,"o":"m 69 60 q 71 74 69 67 q 75 90 72 82 l 468 875 q 535 949 492 919 q 635 978 579 978 q 735 949 690 978 q 803 875 779 919 l 1189 96 q 1198 78 1194 86 q 1201 60 1201 69 q 1182 13 1201 32 q 1135 -7 1163 -7 q 1075 29 1093 -7 l 694 796 q 670 823 686 813 q 635 833 654 833 q 600 823 615 833 q 576 796 585 813 l 200 39 q 176 7 192 21 q 136 -7 160 -7 q 89 13 108 -7 q 69 60 69 32 z "},"s":{"ha":1275,"x_min":69,"x_max":1206,"o":"m 254 338 q 182 352 215 338 q 124 392 149 367 q 84 450 99 417 q 69 522 69 483 q 84 594 69 561 q 124 653 99 628 q 182 692 149 678 q 254 707 215 707 l 1097 707 q 1144 688 1125 707 q 1164 640 1164 668 q 1144 593 1164 613 q 1097 574 1125 574 l 251 574 q 215 559 231 574 q 199 522 199 544 q 215 486 199 501 q 251 471 231 471 l 1019 471 q 1092 456 1058 471 q 1151 417 1126 442 q 1191 358 1176 392 q 1206 285 1206 324 q 1191 213 1206 246 q 1151 154 1176 179 q 1092 115 1126 129 q 1019 101 1058 101 l 178 101 q 131 121 150 101 q 111 168 111 140 q 131 215 111 196 q 178 235 150 235 l 1025 235 q 1061 249 1046 235 q 1076 285 1076 264 q 1061 322 1076 307 q 1025 338 1046 338 l 254 338 l 254 338 z "},"&":{"ha":1188,"x_min":69,"x_max":1183,"o":"m 933 285 q 947 358 933 324 q 986 417 961 392 q 1044 456 1011 442 q 1117 471 1078 471 q 1164 451 1144 471 q 1183 404 1183 432 q 1164 357 1183 376 q 1117 338 1144 338 q 1081 322 1096 338 q 1067 286 1067 307 l 1067 285 q 1052 213 1067 246 q 1013 154 1038 179 q 953 115 988 129 q 881 101 919 101 l 257 101 q 184 116 218 101 q 124 156 150 131 q 84 215 99 181 q 69 288 69 249 q 81 352 69 322 q 113 406 93 382 q 81 459 93 429 q 69 522 69 489 q 84 594 69 561 q 124 653 99 628 q 184 692 150 678 q 257 707 218 707 l 903 707 q 950 688 931 707 q 969 640 969 668 q 950 593 969 613 q 903 574 931 574 l 251 574 q 215 558 231 574 q 199 522 199 543 q 215 485 199 500 q 251 471 231 471 l 789 471 q 836 451 817 471 q 856 404 856 432 q 836 357 856 376 q 789 338 817 338 l 250 338 q 214 324 229 338 q 199 288 199 310 q 215 251 199 267 q 251 235 231 235 l 882 235 q 918 249 903 235 q 933 285 933 264 z "},"[":{"ha":1133,"x_min":69,"x_max":1064,"o":"m 369 368 l 764 368 l 621 560 q 597 584 611 571 q 567 597 582 597 q 537 584 551 597 q 514 560 522 571 l 369 368 m 864 235 l 268 235 l 188 126 q 136 101 167 101 q 89 121 108 101 q 69 168 69 140 q 83 208 69 193 l 421 663 q 483 715 444 694 q 567 735 522 735 q 646 717 608 735 q 707 667 683 699 l 1044 215 q 1058 194 1053 206 q 1064 168 1064 182 q 1044 121 1064 140 q 997 101 1025 101 q 944 128 964 101 l 864 235 z "},";":{"ha":311,"x_min":47,"x_max":242,"o":"m 224 90 q 212 24 224 58 q 165 -42 200 -10 q 142 -60 154 -53 q 114 -67 129 -67 q 67 -47 86 -67 q 47 0 47 -28 q 69 50 47 31 q 75 57 71 51 q 82 75 79 63 q 88 110 85 88 q 90 168 90 132 q 110 215 90 196 q 157 235 129 235 q 204 215 185 235 q 224 168 224 196 l 224 90 m 69 557 q 94 618 69 593 q 156 643 119 643 q 217 618 192 643 q 242 557 242 593 q 217 496 242 521 q 156 471 192 471 q 94 496 119 471 q 69 557 69 521 z "},";":{"ha":311,"x_min":47,"x_max":242,"o":"m 224 90 q 212 24 224 58 q 165 -42 200 -10 q 142 -60 154 -53 q 114 -67 129 -67 q 67 -47 86 -67 q 47 0 47 -28 q 69 50 47 31 q 75 57 71 51 q 82 75 79 63 q 88 110 85 88 q 90 168 90 132 q 110 215 90 196 q 157 235 129 235 q 204 215 185 235 q 224 168 224 196 l 224 90 m 69 557 q 94 618 69 593 q 156 643 119 643 q 217 618 192 643 q 242 557 242 593 q 217 496 242 521 q 156 471 192 471 q 94 496 119 471 q 69 557 69 521 z "},"•":{"ha":406,"x_min":69,"x_max":336,"o":"m 69 404 q 80 455 69 431 q 109 498 90 479 q 151 527 128 517 q 203 538 175 538 q 253 527 229 538 q 297 498 278 517 q 326 455 315 479 q 336 404 336 431 q 326 353 336 376 q 297 310 315 329 q 253 281 278 292 q 203 271 229 271 q 151 281 175 271 q 109 310 128 292 q 80 353 90 329 q 69 404 69 376 z "},"\"":{"ha":472,"x_min":69,"x_max":403,"o":"m 403 625 q 383 578 403 597 q 336 558 364 558 q 289 578 308 558 q 269 625 269 597 l 269 794 q 289 842 269 822 q 336 861 308 861 q 383 842 364 861 q 403 794 403 822 l 403 625 l 403 625 m 203 625 q 183 578 203 597 q 136 558 164 558 q 89 578 108 558 q 69 625 69 597 l 69 794 q 89 842 69 822 q 136 861 108 861 q 183 842 164 861 q 203 794 203 822 l 203 625 l 203 625 z "},"?":{"ha":1142,"x_min":69,"x_max":1072,"o":"m 403 168 q 428 229 403 204 q 489 254 453 254 q 550 229 525 254 q 575 168 575 204 q 550 107 575 132 q 489 82 525 82 q 428 107 453 82 q 403 168 403 132 m 69 522 q 85 594 69 561 q 126 653 100 628 q 188 692 153 678 q 261 707 222 707 l 885 707 q 958 692 924 707 q 1017 653 992 678 q 1058 594 1043 628 q 1072 522 1072 561 q 1058 450 1072 483 q 1017 392 1043 417 q 958 352 992 367 q 885 338 924 338 l 469 338 q 422 357 442 338 q 403 404 403 376 q 422 451 403 432 q 469 471 442 471 l 890 471 q 927 485 911 471 q 943 522 943 500 q 927 558 943 543 q 890 574 911 574 l 251 574 q 217 557 232 571 q 203 522 203 543 q 183 475 203 494 q 136 456 164 456 q 89 475 108 456 q 69 522 69 494 z "},"(":{"ha":479,"x_min":69,"x_max":444,"o":"m 378 -111 q 349 -103 363 -111 q 325 -85 335 -96 q 207 58 256 -4 q 128 175 158 119 q 83 285 97 231 q 69 404 69 339 q 83 532 69 474 q 128 647 97 590 q 207 764 158 704 q 325 896 256 824 q 349 915 336 907 q 378 922 363 922 q 425 903 406 922 q 444 856 444 883 q 425 808 444 828 q 316 685 358 736 q 249 589 274 633 q 213 501 224 544 q 203 404 203 458 q 213 311 203 350 q 247 231 222 272 q 315 136 272 189 q 425 3 358 83 q 444 -44 444 -19 q 425 -92 444 -72 q 378 -111 406 -111 z "},")":{"ha":479,"x_min":35,"x_max":410,"o":"m 101 -111 q 54 -92 74 -111 q 35 -44 35 -72 q 54 3 35 -19 q 164 136 121 83 q 232 231 207 189 q 267 311 257 272 q 276 404 276 350 q 266 501 276 458 q 231 589 256 544 q 163 685 206 633 q 54 808 121 736 q 35 856 35 828 q 54 903 35 883 q 101 922 74 922 q 130 915 117 922 q 154 896 143 907 q 272 764 224 824 q 351 647 321 704 q 396 532 382 590 q 410 404 410 474 q 396 285 410 339 q 351 175 382 231 q 272 58 321 119 q 154 -85 224 -4 q 131 -103 144 -96 q 101 -111 117 -111 z "},"…":{"ha":1072,"x_min":69,"x_max":1003,"o":"m 831 168 q 856 229 831 204 q 917 254 881 254 q 978 229 953 254 q 1003 168 1003 204 q 978 107 1003 132 q 917 82 953 82 q 856 107 881 82 q 831 168 831 132 m 450 168 q 475 229 450 204 q 536 254 500 254 q 597 229 572 254 q 622 168 622 204 q 597 107 622 132 q 536 82 572 82 q 475 107 500 82 q 450 168 450 132 m 69 168 q 94 229 69 204 q 156 254 119 254 q 217 229 192 254 q 242 168 242 204 q 217 107 242 132 q 156 82 192 82 q 94 107 119 82 q 69 168 69 132 z "},"B":{"ha":1225,"x_min":69,"x_max":1156,"o":"m 203 235 l 974 235 q 1010 250 994 235 q 1026 286 1026 265 q 1010 323 1026 308 q 974 338 994 338 l 203 338 l 203 235 m 203 574 l 203 471 l 975 471 q 1011 485 996 471 q 1026 521 1026 499 q 1010 558 1026 542 q 974 574 994 574 l 203 574 m 136 101 q 89 121 108 101 q 69 168 69 140 l 69 640 q 89 688 69 668 q 136 707 108 707 l 968 707 q 1041 692 1007 707 q 1101 653 1075 678 q 1141 594 1126 628 q 1156 521 1156 560 q 1144 456 1156 486 q 1113 403 1132 426 q 1144 349 1132 379 q 1156 286 1156 319 q 1141 214 1156 247 q 1101 156 1126 181 q 1041 116 1075 131 q 968 101 1007 101 l 136 101 l 136 101 z "},"C":{"ha":1271,"x_min":69,"x_max":1201,"o":"m 69 404 q 87 510 69 457 q 138 608 104 564 q 218 679 171 651 q 325 707 265 707 l 1135 707 q 1182 688 1163 707 q 1201 640 1201 668 q 1182 593 1201 613 q 1135 574 1163 574 l 354 574 q 276 556 306 574 q 228 514 246 539 q 205 459 211 489 q 199 404 199 429 q 205 349 199 379 q 228 294 211 319 q 276 252 246 269 q 354 235 306 235 l 1135 235 q 1182 215 1163 235 q 1201 168 1201 196 q 1182 121 1201 140 q 1135 101 1163 101 l 311 101 q 210 129 254 101 q 134 201 165 157 q 86 299 103 244 q 69 404 69 353 z "},"D":{"ha":1271,"x_min":69,"x_max":1201,"o":"m 203 574 l 203 235 l 917 235 q 994 252 964 235 q 1042 294 1025 269 q 1066 349 1060 319 q 1072 404 1072 379 q 1066 459 1072 429 q 1042 514 1060 489 q 994 556 1025 539 q 917 574 964 574 l 203 574 m 1201 404 q 1185 300 1201 353 q 1137 204 1168 247 q 1061 133 1106 161 q 960 101 1017 104 l 136 101 q 89 121 108 101 q 69 168 69 140 l 69 640 q 89 688 69 668 q 136 707 108 707 l 946 707 q 1053 679 1006 707 q 1133 608 1100 651 q 1184 510 1167 564 q 1201 404 1201 457 z "},"F":{"ha":1257,"x_min":71,"x_max":1189,"o":"m 1090 471 q 1138 451 1118 471 q 1157 404 1157 432 q 1138 357 1157 376 q 1090 338 1118 338 l 371 338 q 324 357 343 338 q 304 404 304 376 q 324 451 304 432 q 371 471 343 471 l 1090 471 l 1090 471 m 71 404 q 88 510 71 457 q 139 608 106 564 q 219 679 172 651 q 326 707 267 707 l 1122 707 q 1169 688 1150 707 q 1189 640 1189 668 q 1169 593 1189 613 q 1122 574 1150 574 l 356 574 q 281 558 310 574 q 235 519 251 543 q 212 467 218 494 q 204 414 206 439 l 204 168 q 185 121 204 140 q 138 101 165 101 q 90 121 110 101 q 71 168 71 140 l 71 404 l 71 404 z "},"G":{"ha":1271,"x_min":69,"x_max":1201,"o":"m 436 404 q 456 451 436 432 q 503 471 475 471 l 1035 471 q 1100 458 1069 471 q 1153 422 1131 444 q 1189 367 1176 399 q 1201 301 1201 336 l 1201 271 q 1189 205 1201 236 q 1153 151 1176 174 q 1100 115 1131 128 q 1035 101 1069 101 l 311 101 q 210 129 254 101 q 134 201 165 157 q 86 299 103 244 q 69 404 69 353 q 87 510 69 457 q 138 608 104 564 q 218 679 171 651 q 325 707 265 707 l 1135 707 q 1182 688 1163 707 q 1201 640 1201 668 q 1182 593 1201 613 q 1135 574 1163 574 l 356 574 q 277 556 307 574 q 230 514 247 539 q 206 459 213 489 q 200 404 200 429 q 206 349 200 379 q 230 294 213 319 q 277 252 247 269 q 356 235 307 235 l 1029 235 q 1059 250 1046 235 q 1072 286 1072 265 q 1060 322 1072 307 q 1029 338 1049 338 l 503 338 q 456 357 475 338 q 436 404 436 376 z "},"h":{"ha":1226,"x_min":69,"x_max":1157,"o":"m 1157 168 q 1138 121 1157 140 q 1090 101 1118 101 q 1043 121 1063 101 q 1024 168 1024 140 l 1024 338 l 203 338 l 203 168 q 183 121 203 140 q 136 101 164 101 q 89 121 108 101 q 69 168 69 140 l 69 640 q 89 688 69 668 q 136 707 108 707 q 183 688 164 707 q 203 640 203 668 l 203 471 l 1024 471 l 1024 640 q 1043 688 1024 668 q 1090 707 1063 707 q 1138 688 1118 707 q 1157 640 1157 668 l 1157 168 l 1157 168 z "},"I":{"ha":272,"x_min":69,"x_max":203,"o":"m 203 168 q 183 121 203 140 q 136 101 164 101 q 89 121 108 101 q 69 168 69 140 l 69 640 q 89 688 69 668 q 136 707 108 707 q 183 688 164 707 q 203 640 203 668 l 203 168 l 203 168 z "},"J":{"ha":1261,"x_min":69,"x_max":1192,"o":"m 203 335 q 214 298 203 315 q 244 266 225 281 q 288 243 263 251 q 343 235 314 235 l 903 235 q 978 250 949 235 q 1026 289 1008 265 q 1051 340 1043 313 q 1058 393 1058 368 l 1058 640 q 1078 688 1058 668 q 1125 707 1099 707 q 1172 688 1153 707 q 1192 640 1192 668 l 1192 404 q 1174 298 1192 351 q 1122 201 1156 244 q 1039 129 1088 157 q 931 101 990 101 l 303 101 q 213 121 256 101 q 139 173 171 140 q 88 248 107 206 q 69 335 69 290 q 90 382 69 363 q 136 401 110 401 q 183 382 164 401 q 203 335 203 363 z "},"K":{"ha":1225,"x_min":69,"x_max":1156,"o":"m 201 471 l 522 471 q 664 490 594 471 q 799 539 733 508 q 926 608 865 569 q 1042 688 986 647 q 1089 707 1065 707 q 1136 688 1117 707 q 1156 640 1156 668 q 1144 606 1156 621 q 1118 581 1133 592 q 1049 528 1082 553 q 982 483 1015 504 q 913 443 949 463 q 838 404 878 424 q 913 365 878 385 q 982 325 949 346 q 1049 280 1015 304 q 1118 228 1082 256 q 1144 202 1133 217 q 1156 168 1156 188 q 1136 121 1156 140 q 1089 101 1117 101 q 1042 121 1065 101 q 924 201 985 163 q 799 271 864 240 q 664 319 733 301 q 522 338 594 338 l 201 338 l 201 168 q 182 121 201 140 q 136 101 163 101 q 89 121 108 101 q 69 168 69 140 l 69 640 q 89 688 69 668 q 135 707 108 707 q 182 688 163 707 q 201 640 201 668 l 201 471 z "},"L":{"ha":1225,"x_min":69,"x_max":1156,"o":"m 260 101 q 186 116 221 101 q 126 156 151 131 q 85 214 100 181 q 69 286 69 247 l 69 640 q 89 688 69 668 q 136 707 108 707 q 183 688 163 707 q 203 640 203 668 l 203 286 q 219 250 203 265 q 256 235 235 235 l 1089 235 q 1136 215 1117 235 q 1156 168 1156 196 q 1136 121 1156 140 q 1089 101 1117 101 l 260 101 l 260 101 z "},"M":{"ha":1311,"x_min":69,"x_max":1242,"o":"m 571 168 q 596 229 571 204 q 657 254 621 254 q 718 229 693 254 q 743 168 743 204 q 718 107 743 132 q 657 82 693 82 q 596 107 621 82 q 571 168 571 132 m 203 168 q 183 121 203 140 q 136 101 164 101 q 89 121 108 101 q 69 168 69 140 l 69 640 q 89 688 69 668 q 136 707 108 707 q 161 701 150 707 q 183 688 172 696 q 337 565 272 610 q 455 499 401 521 q 556 471 508 476 q 657 465 603 465 q 758 470 711 465 q 856 497 804 475 q 973 564 908 519 q 1128 688 1038 608 q 1175 707 1151 707 q 1222 688 1203 707 q 1242 640 1242 668 l 1242 168 q 1222 121 1242 140 q 1175 101 1203 101 q 1128 121 1147 101 q 1108 168 1108 140 l 1108 497 q 988 414 1046 447 q 876 360 931 381 q 767 332 821 340 q 657 324 713 324 q 542 332 597 324 q 433 360 488 340 q 322 414 378 381 q 203 497 265 447 l 203 168 l 203 168 z "},"N":{"ha":1218,"x_min":69,"x_max":1149,"o":"m 1015 404 q 1009 459 1015 429 q 985 514 1003 489 q 938 556 968 539 q 860 574 907 574 l 358 574 q 280 556 310 574 q 233 514 250 539 q 209 459 215 489 q 203 404 203 429 l 203 168 q 183 121 203 140 q 136 101 164 101 q 89 121 108 101 q 69 168 69 140 l 69 404 q 87 510 69 457 q 138 608 104 564 q 218 679 171 651 q 325 707 265 707 l 907 707 q 1008 676 964 704 q 1084 604 1053 647 q 1132 508 1115 561 q 1149 404 1149 456 l 1149 168 q 1129 121 1149 140 q 1082 101 1110 101 q 1035 121 1054 101 q 1015 168 1015 140 l 1015 404 l 1015 404 z "},"O":{"ha":1269,"x_min":69,"x_max":1200,"o":"m 915 235 q 993 252 963 235 q 1041 294 1024 269 q 1065 349 1058 319 q 1071 404 1071 379 q 1065 459 1071 429 q 1041 514 1058 489 q 993 556 1024 539 q 915 574 963 574 l 354 574 q 276 556 306 574 q 228 514 246 539 q 205 459 211 489 q 199 404 199 429 q 205 349 199 379 q 228 294 211 319 q 276 252 246 269 q 354 235 306 235 l 915 235 l 915 235 m 1200 404 q 1183 298 1200 351 q 1132 201 1165 244 q 1051 129 1099 157 q 944 101 1004 101 l 311 101 q 210 133 254 104 q 134 204 165 161 q 86 300 103 247 q 69 404 69 353 q 87 510 69 457 q 138 608 104 564 q 218 679 171 651 q 325 707 265 707 l 958 707 q 1060 676 1015 704 q 1135 604 1104 647 q 1183 508 1167 561 q 1200 404 1200 456 z "},"P":{"ha":1225,"x_min":69,"x_max":1156,"o":"m 203 574 l 203 471 l 974 471 q 1010 485 994 471 q 1026 522 1026 500 q 1010 558 1026 543 q 974 574 994 574 l 203 574 m 968 707 q 1041 692 1007 707 q 1101 653 1075 678 q 1141 594 1126 628 q 1156 522 1156 561 q 1141 450 1156 483 q 1101 392 1126 417 q 1041 352 1075 367 q 968 338 1007 338 l 203 338 l 203 168 q 183 121 203 140 q 136 101 163 101 q 89 121 108 101 q 69 168 69 140 l 69 640 q 89 688 69 668 q 136 707 108 707 l 968 707 z "},"Q":{"ha":1269,"x_min":69,"x_max":1200,"o":"m 915 235 q 993 252 963 235 q 1041 294 1024 269 q 1065 349 1058 319 q 1071 404 1071 379 q 1065 459 1071 429 q 1041 514 1058 489 q 993 556 1024 539 q 915 574 963 574 l 354 574 q 276 556 306 574 q 228 514 246 539 q 205 459 211 489 q 199 404 199 429 q 205 349 199 379 q 228 294 211 319 q 276 252 246 269 q 354 235 306 235 l 640 235 q 688 215 668 235 q 707 168 707 196 q 688 121 707 140 q 640 101 668 101 l 311 101 q 210 133 254 104 q 134 204 165 161 q 86 300 103 247 q 69 404 69 353 q 87 510 69 457 q 138 608 104 564 q 218 679 171 651 q 325 707 265 707 l 958 707 q 1060 676 1015 704 q 1135 604 1104 647 q 1183 508 1167 561 q 1200 404 1200 456 q 1183 298 1200 351 q 1132 201 1165 244 q 1051 129 1099 157 q 944 101 1004 101 l 915 101 q 868 121 888 101 q 849 168 849 140 q 868 215 849 196 q 915 235 888 235 m 692 349 q 717 410 692 385 q 778 435 742 435 q 839 410 814 435 q 864 349 864 385 q 839 288 864 313 q 778 263 814 263 q 717 288 742 263 q 692 349 692 313 z "},"S":{"ha":1275,"x_min":69,"x_max":1206,"o":"m 254 338 q 182 352 215 338 q 124 392 149 367 q 84 450 99 417 q 69 522 69 483 q 84 594 69 561 q 124 653 99 628 q 182 692 149 678 q 254 707 215 707 l 1097 707 q 1144 688 1125 707 q 1164 640 1164 668 q 1144 593 1164 613 q 1097 574 1125 574 l 251 574 q 215 559 231 574 q 199 522 199 544 q 215 486 199 501 q 251 471 231 471 l 1019 471 q 1092 456 1058 471 q 1151 417 1126 442 q 1191 358 1176 392 q 1206 285 1206 324 q 1191 213 1206 246 q 1151 154 1176 179 q 1092 115 1126 129 q 1019 101 1058 101 l 178 101 q 131 121 150 101 q 111 168 111 140 q 131 215 111 196 q 178 235 150 235 l 1025 235 q 1061 249 1046 235 q 1076 285 1076 264 q 1061 322 1076 307 q 1025 338 1046 338 l 254 338 l 254 338 z "},"U":{"ha":1269,"x_min":69,"x_max":1200,"o":"m 203 404 q 209 349 203 379 q 233 294 215 319 q 280 252 250 269 q 358 235 310 235 l 911 235 q 989 252 958 235 q 1037 294 1019 269 q 1060 349 1054 319 q 1067 404 1067 379 l 1067 640 q 1086 688 1067 668 q 1133 707 1106 707 q 1181 688 1161 707 q 1200 640 1200 668 l 1200 404 q 1183 298 1200 351 q 1132 201 1165 244 q 1051 129 1099 157 q 944 101 1004 101 l 311 101 q 210 133 254 104 q 134 204 165 161 q 86 300 103 247 q 69 404 69 353 l 69 640 q 89 688 69 668 q 136 707 108 707 q 183 688 164 707 q 203 640 203 668 l 203 404 l 203 404 z "},"V":{"ha":1133,"x_min":69,"x_max":1064,"o":"m 946 682 q 997 707 967 707 q 1044 688 1025 707 q 1064 640 1064 668 q 1050 600 1064 615 l 1049 599 l 713 146 q 649 94 688 114 q 567 74 611 74 q 488 92 525 74 q 426 142 451 110 l 89 593 q 75 615 81 603 q 69 640 69 626 q 89 688 69 668 q 136 707 108 707 q 189 681 169 707 l 513 249 q 537 224 522 238 q 567 211 551 211 q 597 224 582 211 q 619 249 611 238 l 946 682 z "},"W":{"ha":1406,"x_min":69,"x_max":1336,"o":"m 69 640 q 89 688 69 668 q 136 707 108 707 q 183 688 164 707 q 203 640 203 668 l 203 404 q 209 349 203 379 q 233 294 215 319 q 280 252 250 269 q 358 235 310 235 l 681 235 q 647 317 658 274 q 636 404 636 361 l 636 640 q 656 688 636 668 q 703 707 675 707 q 750 688 731 707 q 769 640 769 668 l 769 404 q 776 350 769 379 q 798 295 782 321 q 842 252 814 269 q 915 235 871 235 l 1047 235 q 1125 252 1094 235 q 1173 294 1156 269 q 1197 349 1190 319 q 1203 404 1203 379 l 1203 640 q 1222 688 1203 668 q 1269 707 1242 707 q 1317 688 1297 707 q 1336 640 1336 668 l 1336 404 q 1319 298 1336 351 q 1268 201 1301 244 q 1188 129 1235 157 q 1081 101 1140 101 l 311 101 q 210 129 254 101 q 134 201 165 157 q 86 299 103 244 q 69 404 69 353 l 69 640 l 69 640 z "},"X":{"ha":1256,"x_min":69,"x_max":1186,"o":"m 1119 101 q 1110 102 1114 101 q 1100 104 1106 103 q 981 146 1039 117 q 876 215 922 175 q 803 305 831 256 q 775 404 775 354 q 803 503 775 454 q 876 592 831 551 q 981 663 922 633 q 1100 704 1039 692 q 1110 706 1106 706 q 1119 707 1114 707 q 1167 688 1147 707 q 1186 640 1186 668 q 1168 597 1186 614 q 1124 574 1150 579 q 1042 546 1081 564 q 973 505 1003 528 q 926 456 943 482 q 908 404 908 431 q 926 351 908 378 q 973 302 943 325 q 1042 261 1003 279 q 1124 235 1081 243 q 1168 212 1150 229 q 1186 168 1186 194 q 1167 121 1186 140 q 1119 101 1147 101 m 542 404 q 567 465 542 440 q 628 490 592 490 q 689 465 664 490 q 714 404 714 440 q 689 343 714 368 q 628 318 664 318 q 567 343 592 318 q 542 404 542 368 m 136 101 q 89 121 108 101 q 69 168 69 140 q 88 212 69 194 q 132 235 106 229 q 214 261 175 243 q 283 302 253 279 q 330 351 313 325 q 347 404 347 378 q 330 456 347 431 q 283 505 313 482 q 214 546 253 528 q 132 574 175 564 q 88 597 106 579 q 69 640 69 614 q 89 688 69 668 q 136 707 108 707 q 146 706 142 707 q 156 704 150 706 q 275 663 217 692 q 379 592 333 633 q 453 503 425 551 q 481 404 481 454 q 453 305 481 354 q 379 215 425 256 q 275 146 333 175 q 156 104 217 117 q 146 102 150 103 q 136 101 142 101 z "},"Z":{"ha":1257,"x_min":69,"x_max":1188,"o":"m 136 574 q 89 593 108 574 q 69 640 69 613 q 89 688 69 668 q 136 707 108 707 l 1054 707 q 1149 668 1110 707 q 1188 574 1188 629 q 1160 491 1188 526 q 1089 444 1132 456 l 310 260 q 276 244 276 251 q 336 235 276 235 l 1121 235 q 1168 215 1149 235 q 1188 168 1188 196 q 1168 121 1188 140 q 1121 101 1149 101 l 203 101 q 108 140 147 101 q 69 235 69 179 q 93 314 69 278 q 157 360 117 350 l 949 546 q 971 560 971 553 q 921 574 971 574 l 136 574 z "},"¤":{"ha":1271,"x_min":-22,"x_max":1201,"o":"m 851 371 q 875 361 865 371 q 885 338 885 351 q 875 314 885 324 q 851 304 865 304 l 222 304 q 269 255 238 275 q 354 235 301 235 l 1135 235 q 1182 215 1163 235 q 1201 168 1201 196 q 1182 121 1201 140 q 1135 101 1163 101 l 311 101 q 232 119 268 101 q 167 164 196 136 q 117 228 138 192 q 85 304 97 265 l 7 304 q -12 315 -3 304 q -21 338 -21 325 q -11 361 -21 351 q 13 371 -1 371 l 71 371 q 69 388 69 379 q 69 404 69 396 q 69 421 69 413 q 71 438 69 429 l 6 438 q -13 448 -4 438 q -22 471 -22 458 q -12 494 -22 485 q 11 504 -3 504 l 85 504 q 119 581 97 544 q 172 646 142 618 q 240 690 201 674 q 325 707 279 707 l 1135 707 q 1182 688 1163 707 q 1201 640 1201 668 q 1182 593 1201 613 q 1135 574 1163 574 l 354 574 q 269 553 301 574 q 222 504 238 533 l 919 504 q 943 494 933 504 q 953 471 953 485 q 943 447 953 457 q 919 438 933 438 l 200 438 q 199 419 199 428 q 199 404 199 411 q 199 388 199 396 q 200 371 199 379 l 851 371 l 851 371 z "},"*":{"ha":750,"x_min":69,"x_max":681,"o":"m 289 414 q 314 475 289 450 q 375 500 339 500 q 436 475 411 500 q 461 414 461 450 q 436 353 461 378 q 375 328 411 328 q 314 353 339 328 q 289 414 289 378 m 289 886 q 314 947 289 922 q 375 972 339 972 q 436 947 411 972 q 461 886 461 922 q 436 825 461 850 q 375 800 411 800 q 314 825 339 800 q 289 886 289 850 m 681 525 q 661 478 681 497 q 614 458 642 458 q 589 465 600 458 q 567 479 578 471 q 530 508 553 490 q 480 541 507 525 q 425 569 453 557 q 375 583 397 582 q 326 572 354 583 q 272 543 299 560 q 221 509 244 526 q 183 479 197 492 q 161 465 172 471 q 136 458 150 458 q 89 478 108 458 q 69 525 69 497 q 92 574 69 554 q 134 606 106 585 q 199 650 163 628 q 134 693 163 672 q 92 726 106 714 q 69 775 69 746 q 89 822 69 803 q 136 842 108 842 q 161 835 150 842 q 183 821 172 829 q 221 791 197 808 q 272 757 244 774 q 326 728 299 740 q 375 717 354 717 q 425 730 397 718 q 480 758 453 742 q 530 791 507 774 q 567 821 553 808 q 589 835 578 829 q 614 842 600 842 q 661 822 642 842 q 681 775 681 803 q 658 726 681 746 q 615 693 643 714 q 550 650 586 672 q 615 606 586 628 q 658 574 643 585 q 681 525 681 554 z "},"-":{"ha":683,"x_min":69,"x_max":614,"o":"m 547 471 q 594 451 575 471 q 614 404 614 432 q 594 357 614 376 q 547 338 575 338 l 131 338 q 88 359 106 340 q 69 404 69 378 q 89 451 69 432 q 136 471 108 471 l 547 471 l 547 471 z "},"­":{"ha":683,"x_min":69,"x_max":614,"o":"m 547 471 q 594 451 575 471 q 614 404 614 432 q 594 357 614 376 q 547 338 575 338 l 131 338 q 88 359 106 340 q 69 404 69 378 q 89 451 69 432 q 136 471 108 471 l 547 471 l 547 471 z "},"Y":{"ha":1256,"x_min":69,"x_max":1186,"o":"m 543 168 q 568 229 543 204 q 629 254 593 254 q 690 229 665 254 q 715 168 715 204 q 690 107 715 132 q 629 82 665 82 q 568 107 593 82 q 543 168 543 132 m 629 465 q 725 470 683 465 q 814 497 767 475 q 922 564 861 519 q 1072 688 982 608 q 1119 707 1096 707 q 1167 688 1147 707 q 1186 640 1186 668 q 1178 611 1186 625 q 1160 588 1171 597 q 1003 459 1072 510 q 874 378 935 408 q 754 336 813 349 q 629 324 696 324 q 499 335 558 324 q 381 378 440 347 q 253 459 321 408 q 96 588 185 510 q 77 611 85 597 q 69 640 69 625 q 89 688 69 668 q 136 707 108 707 q 161 701 150 707 q 183 688 172 696 q 333 565 272 610 q 441 499 393 521 q 532 471 489 476 q 629 465 575 465 z "},"A":{"ha":1133,"x_min":69,"x_max":1064,"o":"m 481 251 q 506 313 481 288 q 567 338 531 338 q 628 313 603 338 q 653 251 653 288 q 628 190 653 215 q 567 165 603 165 q 506 190 531 165 q 481 251 481 215 m 188 126 q 136 101 167 101 q 89 121 108 101 q 69 168 69 140 q 83 208 69 193 l 421 663 q 483 715 444 694 q 567 735 522 735 q 646 717 608 735 q 707 667 683 699 l 1044 215 q 1058 194 1053 206 q 1064 168 1064 182 q 1044 121 1064 140 q 997 101 1025 101 q 944 128 964 101 l 621 560 q 597 584 611 571 q 567 597 582 597 q 537 584 551 597 q 514 560 522 571 l 188 126 z "},"^":{"ha":699,"x_min":69,"x_max":629,"o":"m 69 538 q 71 552 69 544 q 75 568 72 560 l 238 903 q 283 954 253 935 q 349 974 313 974 q 415 951 388 974 q 460 896 443 928 l 617 574 q 626 556 622 564 q 629 538 629 547 q 610 490 629 510 q 563 471 590 471 q 503 507 521 471 l 349 825 l 200 517 q 176 485 192 499 q 136 471 160 471 q 89 490 108 471 q 69 538 69 510 z "},"<":{"ha":744,"x_min":69,"x_max":675,"o":"m 608 69 q 594 71 601 69 q 578 75 586 72 l 140 293 q 89 338 108 308 q 69 404 69 368 q 92 471 69 443 q 147 515 115 499 l 572 728 q 590 737 582 733 q 608 740 599 740 q 656 721 636 740 q 675 674 675 701 q 639 614 675 632 l 218 404 l 629 200 q 661 176 647 192 q 675 136 675 160 q 656 89 675 108 q 608 69 636 69 z "},">":{"ha":744,"x_min":69,"x_max":675,"o":"m 136 739 q 151 738 143 739 q 167 733 158 736 l 604 515 q 656 470 636 500 q 675 404 675 440 q 652 338 675 365 q 597 293 629 310 l 172 81 q 154 72 163 75 q 136 68 146 68 q 89 88 108 68 q 69 135 69 107 q 106 194 69 176 l 526 404 l 115 608 q 83 633 97 617 q 69 672 69 649 q 89 719 69 700 q 136 739 108 739 z "},"\\":{"ha":550,"x_min":69,"x_max":481,"o":"m 78 607 q 69 640 69 621 q 88 687 69 667 q 135 707 107 707 q 169 699 153 707 q 194 674 185 690 l 472 201 q 481 168 481 186 q 462 122 481 142 q 415 101 443 101 q 381 110 397 101 q 356 135 365 118 l 78 607 z "},"%":{"ha":1983,"x_min":69,"x_max":1914,"o":"m 1678 235 q 1730 244 1710 235 q 1761 269 1750 254 q 1776 299 1772 283 q 1781 329 1781 315 q 1776 359 1781 343 q 1761 389 1772 375 q 1730 413 1750 403 q 1678 422 1710 422 l 1414 422 q 1362 413 1382 422 q 1331 389 1342 403 q 1315 359 1319 375 q 1311 329 1311 343 q 1315 299 1311 315 q 1331 269 1319 283 q 1362 244 1342 254 q 1414 235 1382 235 l 1678 235 l 1678 235 m 1914 329 q 1901 249 1914 289 q 1863 176 1888 208 q 1802 122 1838 143 q 1722 101 1767 101 l 1358 101 q 1282 126 1315 104 q 1226 179 1249 147 q 1190 251 1203 211 q 1178 329 1178 290 q 1191 409 1178 368 q 1228 482 1204 450 q 1288 535 1253 514 q 1369 556 1324 556 l 1733 556 q 1809 532 1775 553 q 1866 478 1843 511 q 1901 407 1889 446 q 1914 329 1914 368 m 569 386 q 622 396 601 386 q 653 420 642 406 q 668 451 664 435 q 672 481 672 467 q 668 510 672 494 q 653 540 664 526 q 622 564 642 554 q 569 574 601 574 l 306 574 q 253 564 274 574 q 222 540 233 554 q 207 510 211 526 q 203 481 203 494 q 207 451 203 467 q 222 420 211 435 q 253 396 233 406 q 306 386 274 386 l 569 386 l 569 386 m 806 481 q 792 400 806 440 q 754 327 779 360 q 694 274 729 294 q 614 253 658 253 l 250 253 q 174 277 207 256 q 117 331 140 299 q 82 402 94 363 q 69 481 69 442 q 83 560 69 519 q 120 633 96 601 q 180 686 144 665 q 261 707 215 707 l 625 707 q 701 683 667 704 q 758 630 735 663 q 793 558 781 597 q 806 481 806 519 m 911 135 q 885 110 901 118 q 851 101 869 101 q 805 122 824 101 q 786 168 786 142 q 794 201 786 186 l 1072 674 q 1098 699 1082 690 q 1132 707 1114 707 q 1178 687 1160 707 q 1197 640 1197 667 q 1189 607 1197 621 l 911 135 l 911 135 z "},"+":{"ha":1228,"x_min":69,"x_max":1158,"o":"m 681 471 l 1092 471 q 1139 451 1119 471 q 1158 404 1158 432 q 1139 357 1158 376 q 1092 338 1119 338 l 681 338 l 681 168 q 661 121 681 140 q 614 101 642 101 q 567 121 586 101 q 547 168 547 140 l 547 338 l 131 338 q 88 359 106 340 q 69 404 69 378 q 89 452 69 432 q 136 471 108 472 l 547 471 l 547 640 q 567 688 547 668 q 614 707 586 707 q 661 688 642 707 q 681 640 681 668 l 681 471 z "},"–":{"ha":1226,"x_min":69,"x_max":1157,"o":"m 1090 471 q 1138 451 1118 471 q 1157 404 1157 432 q 1138 357 1157 376 q 1090 338 1118 338 l 131 338 q 88 358 106 338 q 69 404 69 378 q 89 451 69 432 q 136 471 108 471 l 1090 471 l 1090 471 z "},"—":{"ha":1504,"x_min":69,"x_max":1435,"o":"m 1368 471 q 1415 451 1396 471 q 1435 404 1435 432 q 1415 357 1435 376 q 1368 338 1396 338 l 131 338 q 88 358 106 338 q 69 404 69 378 q 89 451 69 432 q 136 471 108 471 l 1368 471 l 1368 471 z "},"=":{"ha":1226,"x_min":69,"x_max":1157,"o":"m 1090 301 q 1138 282 1118 301 q 1157 235 1157 263 q 1138 188 1157 207 q 1090 168 1118 168 l 131 168 q 88 188 106 168 q 69 235 69 208 q 89 282 69 263 q 136 301 108 301 l 1090 301 l 1090 301 m 1090 538 q 1138 518 1118 538 q 1157 471 1157 499 q 1138 424 1157 443 q 1090 404 1118 404 l 131 404 q 88 424 106 404 q 69 471 69 444 q 89 518 69 499 q 136 538 108 538 l 1090 538 l 1090 538 z "},"‘":{"ha":272,"x_min":53,"x_max":229,"o":"m 53 549 q 65 615 53 581 q 111 681 76 649 q 135 699 122 692 q 163 706 147 706 q 210 686 190 706 q 229 639 229 667 q 207 589 229 608 q 201 581 204 586 q 194 564 197 576 q 189 529 192 551 q 186 471 186 507 q 167 424 186 443 q 119 404 147 404 q 72 424 92 404 q 53 471 53 443 l 53 549 z "},"’":{"ha":272,"x_min":26,"x_max":203,"o":"m 203 563 q 191 497 203 531 q 144 431 179 463 q 121 413 133 419 q 93 406 108 406 q 46 425 65 406 q 26 472 26 444 q 49 522 26 503 q 54 529 50 524 q 61 547 58 535 q 67 582 64 560 q 69 640 69 604 q 89 688 69 668 q 136 707 108 707 q 183 688 164 707 q 203 640 203 668 l 203 563 z "},"“":{"ha":490,"x_min":53,"x_max":447,"o":"m 271 550 q 283 616 271 582 q 329 682 294 650 q 353 700 340 693 q 381 707 365 707 q 428 688 408 707 q 447 640 447 668 q 425 590 447 610 q 419 583 422 588 q 413 565 415 578 q 407 531 410 553 q 404 472 404 508 q 385 425 404 444 q 338 406 365 406 q 290 425 310 406 q 271 472 271 444 l 271 550 m 53 550 q 65 616 53 582 q 111 682 76 650 q 135 700 122 693 q 163 707 147 707 q 210 688 190 707 q 229 640 229 668 q 207 590 229 610 q 201 583 204 588 q 194 565 197 578 q 189 531 192 553 q 186 472 186 508 q 167 425 186 444 q 119 406 147 406 q 72 425 92 406 q 53 472 53 444 l 53 550 z "},"”":{"ha":490,"x_min":53,"x_max":447,"o":"m 229 563 q 217 497 229 531 q 171 431 206 463 q 147 413 160 419 q 119 406 135 406 q 72 425 92 406 q 53 472 53 444 q 75 522 53 503 q 81 529 76 524 q 88 547 85 535 q 93 582 90 560 q 96 640 96 604 q 115 688 96 668 q 163 707 135 707 q 210 688 190 707 q 229 640 229 668 l 229 563 m 447 563 q 435 497 447 531 q 389 431 424 463 q 365 413 378 419 q 338 406 353 406 q 290 425 310 406 q 271 472 271 444 q 293 522 271 503 q 299 529 294 524 q 306 547 303 535 q 311 582 308 560 q 314 640 314 604 q 333 688 314 668 q 381 707 353 707 q 428 688 408 707 q 447 640 447 668 l 447 563 z "},"R":{"ha":1225,"x_min":69,"x_max":1156,"o":"m 1156 168 q 1136 121 1156 140 q 1089 101 1117 101 q 1064 107 1075 101 q 1043 121 1053 113 q 1031 135 1035 129 q 913 246 974 206 q 786 307 853 286 q 645 333 719 328 q 486 338 571 338 l 203 338 l 203 168 q 183 121 203 140 q 136 101 163 101 q 89 121 108 101 q 69 168 69 140 l 69 525 q 85 600 69 567 q 124 657 100 633 q 178 694 147 681 q 239 707 208 707 l 964 707 q 1038 692 1003 707 q 1099 653 1072 678 q 1140 594 1125 628 q 1156 522 1156 561 q 1136 475 1156 494 q 1089 456 1117 456 q 1042 475 1061 456 q 1022 522 1022 494 q 1008 557 1022 543 q 974 574 993 571 l 246 574 q 217 565 228 574 q 203 543 206 556 l 203 471 l 486 471 q 707 457 608 471 q 885 412 806 443 q 1028 330 965 381 q 1142 206 1092 279 q 1156 168 1156 188 z "},"E":{"ha":1257,"x_min":69,"x_max":1188,"o":"m 1063 471 q 1110 451 1090 471 q 1129 404 1129 432 q 1110 357 1129 376 q 1063 338 1090 338 l 371 338 q 324 357 343 338 q 304 404 304 376 q 324 451 304 432 q 371 471 343 471 l 1063 471 l 1063 471 m 356 574 q 277 556 307 574 q 230 514 247 539 q 206 459 213 489 q 200 404 200 429 q 206 349 200 379 q 230 294 213 319 q 277 252 247 269 q 356 235 307 235 l 1121 235 q 1168 215 1149 235 q 1188 168 1188 196 q 1168 121 1188 140 q 1121 101 1149 101 l 311 101 q 210 129 254 101 q 134 201 165 157 q 86 299 103 244 q 69 404 69 353 q 87 510 69 457 q 138 608 104 564 q 218 679 171 651 q 325 707 265 707 l 1121 707 q 1168 688 1149 707 q 1188 640 1188 668 q 1168 593 1188 613 q 1121 574 1149 574 l 356 574 z "},"#":{"ha":1228,"x_min":69,"x_max":1226,"o":"m 501 354 l 768 354 l 797 456 l 531 456 l 501 354 m 199 456 q 156 477 174 458 q 138 522 138 496 q 157 570 138 550 q 204 589 176 590 l 429 589 l 450 658 q 474 694 457 681 q 514 707 492 707 q 562 687 542 707 q 582 640 582 667 q 579 622 582 633 l 569 589 l 836 589 l 853 646 q 877 681 860 668 q 917 694 894 694 q 965 674 944 694 q 985 628 985 654 q 982 610 985 621 l 975 589 l 1160 589 q 1207 569 1188 589 q 1226 522 1226 550 q 1207 475 1226 494 q 1160 456 1188 456 l 938 456 l 908 354 l 1092 354 q 1139 335 1119 354 q 1158 288 1158 315 q 1139 240 1158 260 q 1092 221 1119 221 l 869 221 l 846 138 q 822 102 839 115 q 782 89 804 89 q 734 109 754 89 q 714 157 714 129 q 717 174 714 163 l 731 221 l 463 221 l 443 150 q 419 115 436 128 q 379 101 401 101 q 331 122 351 101 q 311 169 311 142 q 314 186 311 175 l 324 221 l 131 221 q 88 242 106 224 q 69 288 69 261 q 89 335 69 315 q 136 354 108 356 l 361 354 l 390 456 l 199 456 l 199 456 z "},"T":{"ha":1228,"x_min":69,"x_max":1158,"o":"m 1092 707 q 1139 688 1119 707 q 1158 640 1158 668 q 1140 595 1158 614 q 1097 574 1122 576 l 818 574 q 749 553 776 571 q 707 511 722 536 q 686 457 692 486 q 681 404 681 428 l 681 168 q 661 121 681 140 q 614 101 642 101 q 567 121 586 101 q 547 168 547 140 l 547 404 q 558 491 547 447 q 592 574 569 535 l 136 574 q 89 593 108 574 q 69 640 69 613 q 89 688 69 668 q 136 707 108 707 l 1092 707 z "},"_":{"ha":0,"x_min":-272,"x_max":272,"o":"m 206 235 q 253 215 233 235 q 272 168 272 196 q 253 121 272 140 q 206 101 233 101 l -211 101 q -254 123 -236 104 q -272 168 -272 142 q -253 215 -272 196 q -206 235 -233 235 l 206 235 l 206 235 z "},"Œ":{"ha":2258,"x_min":69,"x_max":2189,"o":"m 2064 471 q 2111 451 2092 471 q 2131 404 2131 432 q 2111 357 2131 376 q 2064 338 2092 338 l 1372 338 q 1325 357 1344 338 q 1306 404 1306 376 q 1325 451 1306 432 q 1372 471 1344 471 l 2064 471 l 2064 471 m 2122 707 q 2169 688 2150 707 q 2189 640 2189 668 q 2169 593 2189 613 q 2122 574 2150 574 l 1326 574 q 1279 593 1299 574 q 1260 640 1260 613 q 1279 688 1260 668 q 1326 707 1299 707 l 2122 707 m 311 101 q 210 133 254 104 q 134 204 165 161 q 86 300 103 247 q 69 404 69 353 q 87 510 69 457 q 138 608 104 564 q 218 679 171 651 q 325 707 265 707 l 958 707 q 1060 676 1015 704 q 1137 604 1106 647 q 1185 508 1168 561 q 1201 404 1201 456 q 1208 349 1201 379 q 1231 294 1214 319 q 1278 252 1249 269 q 1357 235 1308 235 l 2122 235 q 2169 215 2150 235 q 2189 168 2189 196 q 2169 121 2189 140 q 2122 101 2150 101 l 1313 101 q 1211 133 1256 104 q 1135 204 1167 161 q 1088 300 1104 247 q 1071 404 1071 353 q 1065 459 1071 429 q 1041 514 1058 489 q 993 556 1024 539 q 915 574 963 574 l 354 574 q 276 556 306 574 q 228 514 246 539 q 205 459 211 489 q 199 404 199 429 q 205 349 199 379 q 228 294 211 319 q 276 252 246 269 q 354 235 306 235 l 944 235 q 992 215 972 235 q 1011 168 1011 196 q 992 121 1011 140 q 944 101 972 101 l 311 101 z "},"œ":{"ha":2258,"x_min":69,"x_max":2189,"o":"m 1240 101 q 1169 119 1204 101 q 1108 171 1133 138 q 1041 122 1079 140 q 958 101 1003 104 l 325 101 q 218 129 265 101 q 138 201 171 157 q 87 298 104 244 q 69 404 69 351 q 86 508 69 456 q 134 604 103 561 q 210 676 165 647 q 311 707 254 704 l 2122 707 q 2169 688 2150 707 q 2189 640 2189 668 q 2169 593 2189 613 q 2122 574 2150 574 l 354 574 q 276 556 306 574 q 228 514 246 539 q 205 459 211 489 q 199 404 199 429 q 205 349 199 379 q 228 294 211 319 q 276 252 246 269 q 354 235 306 235 l 915 235 q 990 250 961 235 q 1038 289 1019 265 q 1063 340 1056 313 q 1071 393 1069 368 l 1071 408 q 1092 458 1071 446 q 1160 471 1114 471 l 2092 471 q 2139 451 2119 471 q 2158 404 2158 432 q 2139 357 2158 376 q 2092 338 2119 338 l 1204 338 l 1204 269 q 1216 245 1204 256 q 1247 235 1228 235 l 2122 235 q 2169 215 2150 235 q 2189 168 2189 196 q 2169 121 2189 140 q 2122 101 2150 101 l 1240 101 z "},"$":{"ha":1275,"x_min":69,"x_max":1206,"o":"m 551 -46 q 576 15 551 -10 q 638 40 601 40 q 699 15 674 40 q 724 -46 724 -10 q 699 -107 724 -82 q 638 -132 674 -132 q 576 -107 601 -132 q 551 -46 551 -82 m 551 854 q 576 915 551 890 q 638 940 601 940 q 699 915 674 940 q 724 854 724 890 q 699 793 724 818 q 638 768 674 768 q 576 793 601 768 q 551 854 551 818 m 254 338 q 182 352 215 338 q 124 392 149 367 q 84 450 99 417 q 69 522 69 483 q 84 594 69 561 q 124 653 99 628 q 182 692 149 678 q 254 707 215 707 l 1097 707 q 1144 688 1125 707 q 1164 640 1164 668 q 1144 593 1164 613 q 1097 574 1125 574 l 251 574 q 215 559 231 574 q 199 522 199 544 q 215 486 199 501 q 251 471 231 471 l 1019 471 q 1092 456 1058 471 q 1151 417 1126 442 q 1191 358 1176 392 q 1206 285 1206 324 q 1191 213 1206 246 q 1151 154 1176 179 q 1092 115 1126 129 q 1019 101 1058 101 l 178 101 q 131 121 150 101 q 111 168 111 140 q 131 215 111 196 q 178 235 150 235 l 1025 235 q 1061 249 1046 235 q 1076 285 1076 264 q 1061 322 1076 307 q 1025 338 1046 338 l 254 338 l 254 338 z "},"Æ":{"ha":2011,"x_min":69,"x_max":1942,"o":"m 1875 707 q 1922 688 1903 707 q 1942 640 1942 668 q 1922 593 1942 613 q 1875 574 1903 574 l 949 574 q 901 593 921 574 q 882 640 882 613 q 901 688 882 668 q 949 707 921 707 l 1875 707 l 1875 707 m 481 251 q 506 313 481 288 q 567 338 531 338 q 628 313 603 338 q 653 251 653 288 q 628 190 653 215 q 567 165 603 165 q 506 190 531 165 q 481 251 481 215 m 1817 471 q 1864 451 1844 471 q 1883 404 1883 432 q 1864 357 1883 376 q 1817 338 1844 338 l 1125 338 q 1078 357 1097 338 q 1058 404 1058 376 q 1078 451 1058 432 q 1125 471 1097 471 l 1817 471 l 1817 471 m 621 560 q 597 584 611 571 q 567 597 582 597 q 537 584 551 597 q 514 560 522 571 l 188 126 q 136 101 167 101 q 89 121 108 101 q 69 168 69 140 q 83 208 69 193 l 421 663 q 483 715 444 694 q 567 735 522 735 q 646 717 608 735 q 707 667 683 699 l 992 285 q 1038 248 1010 261 q 1110 235 1065 235 l 1875 235 q 1922 215 1903 235 q 1942 168 1942 196 q 1922 121 1942 140 q 1875 101 1903 101 l 1065 101 q 967 131 1010 104 q 892 199 924 158 l 621 560 z "},"æ":{"ha":2061,"x_min":69,"x_max":1992,"o":"m 136 101 q 89 121 108 101 q 69 168 69 140 q 83 208 69 193 l 421 635 q 484 687 446 667 q 567 707 522 707 l 1925 707 q 1972 688 1953 707 q 1992 640 1992 668 q 1972 593 1992 613 q 1925 574 1953 574 l 567 574 q 538 560 551 574 q 515 535 524 546 l 188 126 q 136 101 167 101 m 740 404 q 760 451 740 432 q 807 471 779 471 l 1894 471 q 1942 451 1922 471 q 1961 404 1961 432 q 1942 357 1961 376 q 1894 338 1922 338 l 946 338 l 1014 253 q 1029 240 1021 246 q 1050 235 1038 235 l 1925 235 q 1972 215 1953 235 q 1992 168 1992 196 q 1972 121 1992 140 q 1925 101 1953 101 l 1043 101 q 975 117 1008 101 q 918 161 942 132 l 756 363 q 740 404 740 381 z "},"¥":{"ha":1256,"x_min":69,"x_max":1186,"o":"m 694 168 q 675 121 694 140 q 628 101 656 101 q 581 121 600 101 q 561 168 561 140 l 561 204 l 165 204 q 137 216 149 204 q 125 244 125 228 q 137 273 125 261 q 165 285 149 285 l 1090 285 q 1119 273 1107 285 q 1131 244 1131 261 q 1119 216 1131 228 q 1090 204 1107 204 l 694 204 l 694 168 l 694 168 m 165 338 q 137 349 149 338 q 125 378 125 361 q 137 406 125 394 q 165 418 149 418 l 314 418 q 213 489 267 447 q 96 588 160 531 q 77 611 85 597 q 69 640 69 625 q 89 688 69 668 q 136 707 108 707 q 161 701 150 707 q 183 688 172 696 q 333 566 272 610 q 441 501 393 522 q 532 476 489 481 q 629 471 575 471 q 725 475 683 471 q 814 500 767 479 q 922 565 861 521 q 1072 688 982 608 q 1119 707 1096 707 q 1167 688 1147 707 q 1186 640 1186 668 q 1178 611 1186 625 q 1160 588 1171 597 q 939 418 1033 475 l 1090 418 q 1119 406 1107 418 q 1131 378 1131 394 q 1119 349 1131 361 q 1090 338 1107 338 l 165 338 z "},"ß":{"ha":2446,"x_min":69,"x_max":2379,"o":"m 1428 338 q 1356 352 1389 338 q 1297 392 1322 367 q 1258 450 1272 417 q 1243 522 1243 483 q 1258 594 1243 561 q 1297 653 1272 628 q 1356 692 1322 678 q 1428 707 1389 707 l 2271 707 q 2318 688 2299 707 q 2338 640 2338 668 q 2318 593 2338 613 q 2271 574 2299 574 l 1425 574 q 1388 559 1404 574 q 1372 522 1372 544 q 1388 486 1372 501 q 1425 471 1404 471 l 2193 471 q 2266 456 2232 471 q 2325 417 2300 442 q 2365 358 2350 392 q 2379 285 2379 324 q 2365 213 2379 246 q 2325 154 2350 179 q 2266 115 2300 129 q 2193 101 2232 101 l 1351 101 q 1304 121 1324 101 q 1285 168 1285 140 q 1304 215 1285 196 q 1351 235 1324 235 l 2199 235 q 2235 249 2219 235 q 2250 285 2250 264 q 2235 322 2250 307 q 2199 338 2219 338 l 1428 338 l 1428 338 m 254 338 q 182 352 215 338 q 124 392 149 367 q 84 450 99 417 q 69 522 69 483 q 84 594 69 561 q 124 653 99 628 q 182 692 149 678 q 254 707 215 707 l 1097 707 q 1144 688 1125 707 q 1164 640 1164 668 q 1144 593 1164 613 q 1097 574 1125 574 l 251 574 q 215 559 231 574 q 199 522 199 544 q 215 486 199 501 q 251 471 231 471 l 1019 471 q 1092 456 1058 471 q 1151 417 1126 442 q 1191 358 1176 392 q 1206 285 1206 324 q 1191 213 1206 246 q 1151 154 1176 179 q 1092 115 1126 129 q 1019 101 1058 101 l 178 101 q 131 121 150 101 q 111 168 111 140 q 131 215 111 196 q 178 235 150 235 l 1025 235 q 1061 249 1046 235 q 1076 285 1076 264 q 1061 322 1076 307 q 1025 338 1046 338 l 254 338 l 254 338 z "},"¨":{"ha":611,"x_min":49,"x_max":561,"o":"m 389 849 q 414 910 389 885 q 475 935 439 935 q 536 910 511 935 q 561 849 561 885 q 536 788 561 813 q 475 763 511 763 q 414 788 439 763 q 389 849 389 813 m 49 849 q 74 910 49 885 q 135 935 99 935 q 196 910 171 935 q 221 849 221 885 q 196 788 221 813 q 135 763 171 763 q 74 788 99 763 q 49 849 49 813 z "},"Ä":{"ha":1133,"x_min":69,"x_max":1064,"o":"m 481 251 q 506 313 481 288 q 567 338 531 338 q 628 313 603 338 q 653 251 653 288 q 628 190 653 215 q 567 165 603 165 q 506 190 531 165 q 481 251 481 215 m 188 126 q 136 101 167 101 q 89 121 108 101 q 69 168 69 140 q 83 208 69 193 l 421 663 q 483 715 444 694 q 567 735 522 735 q 646 717 608 735 q 707 667 683 699 l 1044 215 q 1058 194 1053 206 q 1064 168 1064 182 q 1044 121 1064 140 q 997 101 1025 101 q 944 128 964 101 l 621 560 q 597 584 611 571 q 567 597 582 597 q 537 584 551 597 q 514 560 522 571 l 188 126 m 654 849 q 679 910 654 885 q 740 935 704 935 q 801 910 776 935 q 826 849 826 885 q 801 788 826 813 q 740 763 776 763 q 679 788 704 763 q 654 849 654 813 m 314 849 q 339 910 314 885 q 400 935 364 935 q 461 910 436 935 q 486 849 486 885 q 461 788 486 813 q 400 763 436 763 q 339 788 364 763 q 314 849 314 813 z "},"Ë":{"ha":1257,"x_min":69,"x_max":1188,"o":"m 1063 471 q 1110 451 1090 471 q 1129 404 1129 432 q 1110 357 1129 376 q 1063 338 1090 338 l 371 338 q 324 357 343 338 q 304 404 304 376 q 324 451 304 432 q 371 471 343 471 l 1063 471 l 1063 471 m 356 574 q 277 556 307 574 q 230 514 247 539 q 206 459 213 489 q 200 404 200 429 q 206 349 200 379 q 230 294 213 319 q 277 252 247 269 q 356 235 307 235 l 1121 235 q 1168 215 1149 235 q 1188 168 1188 196 q 1168 121 1188 140 q 1121 101 1149 101 l 311 101 q 210 129 254 101 q 134 201 165 157 q 86 299 103 244 q 69 404 69 353 q 87 510 69 457 q 138 608 104 564 q 218 679 171 651 q 325 707 265 707 l 1121 707 q 1168 688 1149 707 q 1188 640 1188 668 q 1168 593 1188 613 q 1121 574 1149 574 l 356 574 m 731 849 q 756 910 731 885 q 817 935 781 935 q 878 910 853 935 q 903 849 903 885 q 878 788 903 813 q 817 763 853 763 q 756 788 781 763 q 731 849 731 813 m 390 849 q 415 910 390 885 q 476 935 440 935 q 538 910 513 935 q 563 849 563 885 q 538 788 563 813 q 476 763 513 763 q 415 788 440 763 q 390 849 390 813 z "},"Ï":{"ha":272,"x_min":-76,"x_max":353,"o":"m 203 168 q 183 121 203 140 q 136 101 164 101 q 89 121 108 101 q 69 168 69 140 l 69 640 q 89 688 69 668 q 136 707 108 707 q 183 688 164 707 q 203 640 203 668 l 203 168 l 203 168 m 181 882 q 206 943 181 918 q 267 968 231 968 q 328 943 303 968 q 353 882 353 918 q 328 821 353 846 q 267 796 303 796 q 206 821 231 796 q 181 882 181 846 m -76 882 q -51 943 -76 918 q 10 968 -26 968 q 71 943 46 968 q 96 882 96 918 q 71 821 96 846 q 10 796 46 796 q -51 821 -26 796 q -76 882 -76 846 z "},"Ô":{"ha":1269,"x_min":69,"x_max":1200,"o":"m 915 235 q 993 252 963 235 q 1041 294 1024 269 q 1065 349 1058 319 q 1071 404 1071 379 q 1065 459 1071 429 q 1041 514 1058 489 q 993 556 1024 539 q 915 574 963 574 l 354 574 q 276 556 306 574 q 228 514 246 539 q 205 459 211 489 q 199 404 199 429 q 205 349 199 379 q 228 294 211 319 q 276 252 246 269 q 354 235 306 235 l 915 235 l 915 235 m 1200 404 q 1183 298 1200 351 q 1132 201 1165 244 q 1051 129 1099 157 q 944 101 1004 101 l 311 101 q 210 133 254 104 q 134 204 165 161 q 86 300 103 247 q 69 404 69 353 q 87 510 69 457 q 138 608 104 564 q 218 679 171 651 q 325 707 265 707 l 958 707 q 1060 676 1015 704 q 1135 604 1104 647 q 1183 508 1167 561 q 1200 404 1200 456 m 410 807 q 431 856 410 835 l 563 989 l 567 992 q 614 1011 583 1011 q 661 992 644 1011 l 665 989 l 797 856 q 818 807 818 835 q 798 759 818 779 q 750 739 778 739 q 704 760 722 739 l 614 849 l 524 760 q 478 739 506 739 q 430 759 450 739 q 410 807 410 779 z "},"Ö":{"ha":1269,"x_min":69,"x_max":1200,"o":"m 915 235 q 993 252 963 235 q 1041 294 1024 269 q 1065 349 1058 319 q 1071 404 1071 379 q 1065 459 1071 429 q 1041 514 1058 489 q 993 556 1024 539 q 915 574 963 574 l 354 574 q 276 556 306 574 q 228 514 246 539 q 205 459 211 489 q 199 404 199 429 q 205 349 199 379 q 228 294 211 319 q 276 252 246 269 q 354 235 306 235 l 915 235 l 915 235 m 1200 404 q 1183 298 1200 351 q 1132 201 1165 244 q 1051 129 1099 157 q 944 101 1004 101 l 311 101 q 210 133 254 104 q 134 204 165 161 q 86 300 103 247 q 69 404 69 353 q 87 510 69 457 q 138 608 104 564 q 218 679 171 651 q 325 707 265 707 l 958 707 q 1060 676 1015 704 q 1135 604 1104 647 q 1183 508 1167 561 q 1200 404 1200 456 m 717 849 q 742 910 717 885 q 803 935 767 935 q 864 910 839 935 q 889 849 889 885 q 864 788 889 813 q 803 763 839 763 q 742 788 767 763 q 717 849 717 813 m 376 849 q 401 910 376 885 q 463 935 426 935 q 524 910 499 935 q 549 849 549 885 q 524 788 549 813 q 463 763 499 763 q 401 788 426 763 q 376 849 376 813 z "},"Ü":{"ha":1269,"x_min":69,"x_max":1200,"o":"m 203 404 q 209 349 203 379 q 233 294 215 319 q 280 252 250 269 q 358 235 310 235 l 911 235 q 989 252 958 235 q 1037 294 1019 269 q 1060 349 1054 319 q 1067 404 1067 379 l 1067 640 q 1086 688 1067 668 q 1133 707 1106 707 q 1181 688 1161 707 q 1200 640 1200 668 l 1200 404 q 1183 298 1200 351 q 1132 201 1165 244 q 1051 129 1099 157 q 944 101 1004 101 l 311 101 q 210 133 254 104 q 134 204 165 161 q 86 300 103 247 q 69 404 69 353 l 69 640 q 89 688 69 668 q 136 707 108 707 q 183 688 164 707 q 203 640 203 668 l 203 404 l 203 404 m 722 849 q 747 910 722 885 q 808 935 772 935 q 869 910 844 935 q 894 849 894 885 q 869 788 894 813 q 808 763 844 763 q 747 788 772 763 q 722 849 722 813 m 382 849 q 407 910 382 885 q 468 935 432 935 q 529 910 504 935 q 554 849 554 885 q 529 788 554 813 q 468 763 504 763 q 407 788 432 763 q 382 849 382 813 z "},"ˆ":{"ha":611,"x_min":101,"x_max":510,"o":"m 101 807 q 122 856 101 835 l 254 989 l 258 992 q 306 1011 275 1011 q 353 992 336 1011 l 357 989 l 489 856 q 510 807 510 835 q 490 759 510 779 q 442 739 469 739 q 396 760 414 739 l 306 849 l 215 760 q 169 739 197 739 q 122 759 142 739 q 101 807 101 779 z "},"Â":{"ha":1133,"x_min":69,"x_max":1064,"o":"m 481 251 q 506 313 481 288 q 567 338 531 338 q 628 313 603 338 q 653 251 653 288 q 628 190 653 215 q 567 165 603 165 q 506 190 531 165 q 481 251 481 215 m 188 126 q 136 101 167 101 q 89 121 108 101 q 69 168 69 140 q 83 208 69 193 l 421 663 q 483 715 444 694 q 567 735 522 735 q 646 717 608 735 q 707 667 683 699 l 1044 215 q 1058 194 1053 206 q 1064 168 1064 182 q 1044 121 1064 140 q 997 101 1025 101 q 944 128 964 101 l 621 560 q 597 584 611 571 q 567 597 582 597 q 537 584 551 597 q 514 560 522 571 l 188 126 m 367 807 q 388 856 367 835 l 519 989 l 524 992 q 571 1011 540 1011 q 618 992 601 1011 l 622 989 l 754 856 q 775 807 775 835 q 755 759 775 779 q 707 739 735 739 q 661 760 679 739 l 571 849 l 481 760 q 435 739 463 739 q 387 759 407 739 q 367 807 367 779 z "},"ä":{"ha":1133,"x_min":69,"x_max":1064,"o":"m 188 126 q 136 101 167 101 q 89 121 108 101 q 69 168 69 140 q 83 208 69 193 l 421 663 q 483 715 444 694 q 567 735 522 735 q 646 717 608 735 q 707 667 683 699 l 1044 215 q 1058 194 1053 206 q 1064 168 1064 182 q 1044 121 1064 140 q 997 101 1025 101 q 944 128 964 101 l 621 560 q 597 584 611 571 q 567 597 582 597 q 537 584 551 597 q 514 560 522 571 l 188 126 m 651 849 q 676 910 651 885 q 738 935 701 935 q 799 910 774 935 q 824 849 824 885 q 799 788 824 813 q 738 763 774 763 q 676 788 701 763 q 651 849 651 813 m 311 849 q 336 910 311 885 q 397 935 361 935 q 458 910 433 935 q 483 849 483 885 q 458 788 483 813 q 397 763 433 763 q 336 788 361 763 q 311 849 311 813 z "},"â":{"ha":1133,"x_min":69,"x_max":1064,"o":"m 188 126 q 136 101 167 101 q 89 121 108 101 q 69 168 69 140 q 83 208 69 193 l 421 663 q 483 715 444 694 q 567 735 522 735 q 646 717 608 735 q 707 667 683 699 l 1044 215 q 1058 194 1053 206 q 1064 168 1064 182 q 1044 121 1064 140 q 997 101 1025 101 q 944 128 964 101 l 621 560 q 597 584 611 571 q 567 597 582 597 q 537 584 551 597 q 514 560 522 571 l 188 126 m 364 807 q 385 856 364 835 l 517 989 l 521 992 q 568 1011 538 1011 q 615 992 599 1011 l 619 989 l 751 856 q 772 807 772 835 q 752 759 772 779 q 704 739 732 739 q 658 760 676 739 l 568 849 l 478 760 q 432 739 460 739 q 384 759 404 739 q 364 807 364 779 z "},"ô":{"ha":1269,"x_min":69,"x_max":1200,"o":"m 915 235 q 993 252 963 235 q 1041 294 1024 269 q 1065 349 1058 319 q 1071 404 1071 379 q 1065 459 1071 429 q 1041 514 1058 489 q 993 556 1024 539 q 915 574 963 574 l 354 574 q 276 556 306 574 q 228 514 246 539 q 205 459 211 489 q 199 404 199 429 q 205 349 199 379 q 228 294 211 319 q 276 252 246 269 q 354 235 306 235 l 915 235 l 915 235 m 1200 404 q 1183 298 1200 351 q 1132 201 1165 244 q 1051 129 1099 157 q 944 101 1004 101 l 311 101 q 210 133 254 104 q 134 204 165 161 q 86 300 103 247 q 69 404 69 353 q 87 510 69 457 q 138 608 104 564 q 218 679 171 651 q 325 707 265 707 l 958 707 q 1060 676 1015 704 q 1135 604 1104 647 q 1183 508 1167 561 q 1200 404 1200 456 m 449 807 q 469 856 449 835 l 601 989 l 606 992 q 653 1011 622 1011 q 700 992 683 1011 l 704 989 l 836 856 q 857 807 857 835 q 837 759 857 779 q 789 739 817 739 q 743 760 761 739 l 653 849 l 563 760 q 517 739 544 739 q 469 759 489 739 q 449 807 449 779 z "},"ö":{"ha":1269,"x_min":69,"x_max":1200,"o":"m 915 235 q 993 252 963 235 q 1041 294 1024 269 q 1065 349 1058 319 q 1071 404 1071 379 q 1065 459 1071 429 q 1041 514 1058 489 q 993 556 1024 539 q 915 574 963 574 l 354 574 q 276 556 306 574 q 228 514 246 539 q 205 459 211 489 q 199 404 199 429 q 205 349 199 379 q 228 294 211 319 q 276 252 246 269 q 354 235 306 235 l 915 235 l 915 235 m 1200 404 q 1183 298 1200 351 q 1132 201 1165 244 q 1051 129 1099 157 q 944 101 1004 101 l 311 101 q 210 133 254 104 q 134 204 165 161 q 86 300 103 247 q 69 404 69 353 q 87 510 69 457 q 138 608 104 564 q 218 679 171 651 q 325 707 265 707 l 958 707 q 1060 676 1015 704 q 1135 604 1104 647 q 1183 508 1167 561 q 1200 404 1200 456 m 708 849 q 733 910 708 885 q 794 935 758 935 q 856 910 831 935 q 881 849 881 885 q 856 788 881 813 q 794 763 831 763 q 733 788 758 763 q 708 849 708 813 m 368 849 q 393 910 368 885 q 454 935 418 935 q 515 910 490 935 q 540 849 540 885 q 515 788 540 813 q 454 763 490 763 q 393 788 418 763 q 368 849 368 813 z "},"˜":{"ha":694,"x_min":40,"x_max":640,"o":"m 450 767 q 381 779 413 767 q 325 815 349 792 q 292 855 303 838 q 273 884 281 872 q 256 901 265 896 q 231 907 247 907 q 192 894 208 907 q 171 861 176 881 q 148 824 165 839 q 107 810 131 810 q 60 829 79 810 q 40 876 40 849 q 44 900 40 889 q 113 1001 61 963 q 231 1040 164 1040 q 354 990 307 1040 q 388 949 376 967 q 407 921 399 932 q 424 905 415 910 q 450 900 433 900 q 488 913 472 900 q 510 946 504 926 q 533 983 515 968 q 574 997 550 997 q 621 978 601 997 q 640 931 640 958 q 636 907 640 917 q 568 806 619 844 q 450 767 517 767 z "},"Ã":{"ha":1133,"x_min":69,"x_max":1064,"o":"m 481 251 q 506 313 481 288 q 567 338 531 338 q 628 313 603 338 q 653 251 653 288 q 628 190 653 215 q 567 165 603 165 q 506 190 531 165 q 481 251 481 215 m 188 126 q 136 101 167 101 q 89 121 108 101 q 69 168 69 140 q 83 208 69 193 l 421 663 q 483 715 444 694 q 567 735 522 735 q 646 717 608 735 q 707 667 683 699 l 1044 215 q 1058 194 1053 206 q 1064 168 1064 182 q 1044 121 1064 140 q 997 101 1025 101 q 944 128 964 101 l 621 560 q 597 584 611 571 q 567 597 582 597 q 537 584 551 597 q 514 560 522 571 l 188 126 m 678 767 q 608 779 640 767 q 553 815 576 792 q 519 855 531 838 q 501 884 508 872 q 484 901 493 896 q 458 907 475 907 q 420 894 436 907 q 399 861 404 881 q 376 824 393 839 q 335 810 358 810 q 288 829 307 810 q 268 876 268 849 q 272 900 268 889 q 340 1001 289 963 q 458 1040 392 1040 q 582 990 535 1040 q 615 949 604 967 q 635 921 626 932 q 652 905 643 910 q 678 900 661 900 q 716 913 700 900 q 738 946 732 926 q 760 983 743 968 q 801 997 778 997 q 849 978 829 997 q 868 931 868 958 q 864 907 868 917 q 796 806 847 844 q 678 767 744 767 z "},"Ñ":{"ha":1218,"x_min":69,"x_max":1149,"o":"m 1015 404 q 1009 459 1015 429 q 985 514 1003 489 q 938 556 968 539 q 860 574 907 574 l 358 574 q 280 556 310 574 q 233 514 250 539 q 209 459 215 489 q 203 404 203 429 l 203 168 q 183 121 203 140 q 136 101 164 101 q 89 121 108 101 q 69 168 69 140 l 69 404 q 87 510 69 457 q 138 608 104 564 q 218 679 171 651 q 325 707 265 707 l 907 707 q 1008 676 964 704 q 1084 604 1053 647 q 1132 508 1115 561 q 1149 404 1149 456 l 1149 168 q 1129 121 1149 140 q 1082 101 1110 101 q 1035 121 1054 101 q 1015 168 1015 140 l 1015 404 l 1015 404 m 704 767 q 635 779 667 767 q 579 815 603 792 q 546 855 557 838 q 527 884 535 872 q 510 901 519 896 q 485 907 501 907 q 447 894 463 907 q 425 861 431 881 q 402 824 419 839 q 361 810 385 810 q 314 829 333 810 q 294 876 294 849 q 299 900 294 889 q 367 1001 315 963 q 485 1040 418 1040 q 608 990 561 1040 q 642 949 631 967 q 661 921 653 932 q 678 905 669 910 q 704 900 688 900 q 742 913 726 900 q 764 946 758 926 q 787 983 769 968 q 828 997 804 997 q 875 978 856 997 q 894 931 894 958 q 890 907 894 917 q 822 806 874 844 q 704 767 771 767 z "},"Õ":{"ha":1269,"x_min":69,"x_max":1200,"o":"m 915 235 q 993 252 963 235 q 1041 294 1024 269 q 1065 349 1058 319 q 1071 404 1071 379 q 1065 459 1071 429 q 1041 514 1058 489 q 993 556 1024 539 q 915 574 963 574 l 354 574 q 276 556 306 574 q 228 514 246 539 q 205 459 211 489 q 199 404 199 429 q 205 349 199 379 q 228 294 211 319 q 276 252 246 269 q 354 235 306 235 l 915 235 l 915 235 m 1200 404 q 1183 298 1200 351 q 1132 201 1165 244 q 1051 129 1099 157 q 944 101 1004 101 l 311 101 q 210 133 254 104 q 134 204 165 161 q 86 300 103 247 q 69 404 69 353 q 87 510 69 457 q 138 608 104 564 q 218 679 171 651 q 325 707 265 707 l 958 707 q 1060 676 1015 704 q 1135 604 1104 647 q 1183 508 1167 561 q 1200 404 1200 456 m 731 767 q 661 779 693 767 q 606 815 629 792 q 572 855 583 838 q 553 884 561 872 q 537 901 546 896 q 511 907 528 907 q 473 894 489 907 q 451 861 457 881 q 428 824 446 839 q 388 810 411 810 q 340 829 360 810 q 321 876 321 849 q 325 900 321 889 q 393 1001 342 963 q 511 1040 444 1040 q 635 990 588 1040 q 668 949 657 967 q 688 921 679 932 q 705 905 696 910 q 731 900 714 900 q 769 913 753 900 q 790 946 785 926 q 813 983 796 968 q 854 997 831 997 q 901 978 882 997 q 921 931 921 958 q 917 907 921 917 q 849 806 900 844 q 731 767 797 767 z "},"õ":{"ha":1269,"x_min":69,"x_max":1200,"o":"m 915 235 q 993 252 963 235 q 1041 294 1024 269 q 1065 349 1058 319 q 1071 404 1071 379 q 1065 459 1071 429 q 1041 514 1058 489 q 993 556 1024 539 q 915 574 963 574 l 354 574 q 276 556 306 574 q 228 514 246 539 q 205 459 211 489 q 199 404 199 429 q 205 349 199 379 q 228 294 211 319 q 276 252 246 269 q 354 235 306 235 l 915 235 l 915 235 m 1200 404 q 1183 298 1200 351 q 1132 201 1165 244 q 1051 129 1099 157 q 944 101 1004 101 l 311 101 q 210 133 254 104 q 134 204 165 161 q 86 300 103 247 q 69 404 69 353 q 87 510 69 457 q 138 608 104 564 q 218 679 171 651 q 325 707 265 707 l 958 707 q 1060 676 1015 704 q 1135 604 1104 647 q 1183 508 1167 561 q 1200 404 1200 456 m 747 767 q 678 779 710 767 q 622 815 646 792 q 589 855 600 838 q 570 884 578 872 q 553 901 563 896 q 528 907 544 907 q 490 894 506 907 q 468 861 474 881 q 445 824 463 839 q 404 810 428 810 q 357 829 376 810 q 338 876 338 849 q 342 900 338 889 q 410 1001 358 963 q 528 1040 461 1040 q 651 990 604 1040 q 685 949 674 967 q 704 921 696 932 q 722 905 713 910 q 747 900 731 900 q 785 913 769 900 q 807 946 801 926 q 830 983 813 968 q 871 997 847 997 q 918 978 899 997 q 938 931 938 958 q 933 907 938 917 q 865 806 917 844 q 747 767 814 767 z "},"ñ":{"ha":1218,"x_min":69,"x_max":1149,"o":"m 1015 640 q 1035 688 1015 668 q 1082 707 1054 707 q 1129 688 1110 707 q 1149 640 1149 668 l 1149 236 q 1110 140 1149 179 q 1015 101 1072 101 q 977 107 996 101 q 943 122 958 113 l 307 511 q 263 535 281 526 q 235 544 246 544 q 208 518 214 544 q 203 442 203 492 l 203 168 q 183 121 203 140 q 136 101 164 101 q 89 121 108 101 q 69 168 69 140 l 69 572 q 108 668 69 629 q 203 707 146 707 q 241 701 222 707 q 275 686 260 696 l 911 297 q 955 273 938 282 q 983 264 972 264 q 1010 290 1004 264 q 1015 367 1015 317 l 1015 640 l 1015 640 m 711 767 q 642 779 674 767 q 586 815 610 792 q 553 855 564 838 q 534 884 542 872 q 517 901 526 896 q 492 907 508 907 q 453 894 469 907 q 432 861 438 881 q 409 824 426 839 q 368 810 392 810 q 321 829 340 810 q 301 876 301 849 q 306 900 301 889 q 374 1001 322 963 q 492 1040 425 1040 q 615 990 568 1040 q 649 949 638 967 q 668 921 660 932 q 685 905 676 910 q 711 900 694 900 q 749 913 733 900 q 771 946 765 926 q 794 983 776 968 q 835 997 811 997 q 882 978 863 997 q 901 931 901 958 q 897 907 901 917 q 829 806 881 844 q 711 767 778 767 z "},"ï":{"ha":272,"x_min":-114,"x_max":399,"o":"m 203 168 q 183 121 203 140 q 136 101 164 101 q 89 121 108 101 q 69 168 69 140 l 69 640 q 89 688 69 668 q 136 707 108 707 q 183 688 164 707 q 203 640 203 668 l 203 168 l 203 168 m 226 849 q 251 910 226 885 q 313 935 276 935 q 374 910 349 935 q 399 849 399 885 q 374 788 399 813 q 313 763 349 763 q 251 788 276 763 q 226 849 226 813 m -114 849 q -89 910 -114 885 q -28 935 -64 935 q 33 910 8 935 q 58 849 58 885 q 33 788 58 813 q -28 763 8 763 q -89 788 -64 763 q -114 849 -114 813 z "},"Î":{"ha":272,"x_min":-60,"x_max":349,"o":"m 203 168 q 183 121 203 140 q 136 101 164 101 q 89 121 108 101 q 69 168 69 140 l 69 640 q 89 688 69 668 q 136 707 108 707 q 183 688 164 707 q 203 640 203 668 l 203 168 l 203 168 m -60 807 q -39 856 -60 835 l 93 989 l 97 992 q 144 1011 114 1011 q 192 992 175 1011 l 196 989 l 328 856 q 349 807 349 835 q 328 759 349 779 q 281 739 308 739 q 235 760 253 739 l 144 849 l 54 760 q 8 739 36 739 q -40 759 -19 739 q -60 807 -60 779 z "},"î":{"ha":272,"x_min":-62,"x_max":346,"o":"m 203 168 q 183 121 203 140 q 136 101 164 101 q 89 121 108 101 q 69 168 69 140 l 69 640 q 89 688 69 668 q 136 707 108 707 q 183 688 164 707 q 203 640 203 668 l 203 168 l 203 168 m -62 807 q -42 856 -62 835 l 90 989 l 94 992 q 142 1011 111 1011 q 189 992 172 1011 l 193 989 l 325 856 q 346 807 346 835 q 326 759 346 779 q 278 739 306 739 q 232 760 250 739 l 142 849 l 51 760 q 6 739 33 739 q -42 759 -22 739 q -62 807 -62 779 z "},"ë":{"ha":1257,"x_min":69,"x_max":1188,"o":"m 69 640 q 89 688 69 668 q 136 707 108 707 l 1121 707 q 1168 688 1149 707 q 1188 640 1188 668 q 1168 593 1188 613 q 1121 574 1149 574 l 136 574 q 89 593 108 574 q 69 640 69 613 m 239 101 q 178 115 208 101 q 124 151 147 128 q 85 208 100 175 q 69 283 69 242 l 69 408 q 91 458 69 446 q 158 471 113 471 l 1090 471 q 1138 451 1118 471 q 1157 404 1157 432 q 1138 357 1157 376 q 1090 338 1118 338 l 203 338 l 203 269 q 215 245 203 256 q 246 235 226 235 l 1121 235 q 1168 215 1149 235 q 1188 168 1188 196 q 1168 121 1188 140 q 1121 101 1149 101 l 239 101 m 676 849 q 701 910 676 885 q 763 935 726 935 q 824 910 799 935 q 849 849 849 885 q 824 788 849 813 q 763 763 799 763 q 701 788 726 763 q 676 849 676 813 m 336 849 q 361 910 336 885 q 422 935 386 935 q 483 910 458 935 q 508 849 508 885 q 483 788 508 813 q 422 763 458 763 q 361 788 386 763 q 336 849 336 813 z "},"ê":{"ha":1257,"x_min":69,"x_max":1188,"o":"m 69 640 q 89 688 69 668 q 136 707 108 707 l 1121 707 q 1168 688 1149 707 q 1188 640 1188 668 q 1168 593 1188 613 q 1121 574 1149 574 l 136 574 q 89 593 108 574 q 69 640 69 613 m 239 101 q 178 115 208 101 q 124 151 147 128 q 85 208 100 175 q 69 283 69 242 l 69 408 q 91 458 69 446 q 158 471 113 471 l 1090 471 q 1138 451 1118 471 q 1157 404 1157 432 q 1138 357 1157 376 q 1090 338 1118 338 l 203 338 l 203 269 q 215 245 203 256 q 246 235 226 235 l 1121 235 q 1168 215 1149 235 q 1188 168 1188 196 q 1168 121 1188 140 q 1121 101 1149 101 l 239 101 m 411 807 q 432 856 411 835 l 564 989 l 568 992 q 615 1011 585 1011 q 663 992 646 1011 l 667 989 l 799 856 q 819 807 819 835 q 799 759 819 779 q 751 739 779 739 q 706 760 724 739 l 615 849 l 525 760 q 479 739 507 739 q 431 759 451 739 q 411 807 411 779 z "},"ü":{"ha":1269,"x_min":69,"x_max":1200,"o":"m 203 404 q 209 349 203 379 q 233 294 215 319 q 280 252 250 269 q 358 235 310 235 l 911 235 q 989 252 958 235 q 1037 294 1019 269 q 1060 349 1054 319 q 1067 404 1067 379 l 1067 639 q 1086 686 1067 667 q 1133 706 1106 706 q 1181 686 1161 706 q 1200 639 1200 667 l 1200 404 q 1183 298 1200 351 q 1132 201 1165 244 q 1051 129 1099 157 q 944 101 1004 101 l 311 101 q 210 133 254 104 q 134 204 165 161 q 86 300 103 247 q 69 404 69 353 l 69 639 q 89 686 69 667 q 136 706 108 706 q 183 686 164 706 q 203 639 203 667 l 203 404 l 203 404 m 717 849 q 742 910 717 885 q 803 935 767 935 q 864 910 839 935 q 889 849 889 885 q 864 788 889 813 q 803 763 839 763 q 742 788 767 763 q 717 849 717 813 m 376 849 q 401 910 376 885 q 463 935 426 935 q 524 910 499 935 q 549 849 549 885 q 524 788 549 813 q 463 763 499 763 q 401 788 426 763 q 376 849 376 813 z "},"ÿ":{"ha":1256,"x_min":69,"x_max":1186,"o":"m 694 168 q 675 121 694 140 q 628 101 656 101 q 581 121 600 101 q 561 168 561 140 l 561 338 q 458 351 508 338 q 353 395 408 365 q 236 472 299 425 q 96 588 174 519 q 77 611 85 597 q 69 640 69 625 q 89 688 69 668 q 136 707 108 707 q 161 701 150 707 q 183 688 172 696 q 333 566 272 610 q 441 501 393 522 q 532 476 489 481 q 629 471 575 471 q 725 475 683 471 q 814 500 767 479 q 922 565 861 521 q 1072 688 982 608 q 1119 707 1096 707 q 1167 688 1147 707 q 1186 640 1186 668 q 1178 611 1186 625 q 1160 588 1171 597 q 1019 473 1083 521 q 899 395 956 425 q 792 351 843 365 q 694 338 742 338 l 694 168 l 694 168 m 715 849 q 740 910 715 885 q 801 935 765 935 q 863 910 838 935 q 888 849 888 885 q 863 788 888 813 q 801 763 838 763 q 740 788 765 763 q 715 849 715 813 m 375 849 q 400 910 375 885 q 461 935 425 935 q 522 910 497 935 q 547 849 547 885 q 522 788 547 813 q 461 763 497 763 q 400 788 425 763 q 375 849 375 813 z "},"û":{"ha":1269,"x_min":69,"x_max":1200,"o":"m 203 404 q 209 349 203 379 q 233 294 215 319 q 280 252 250 269 q 358 235 310 235 l 911 235 q 989 252 958 235 q 1037 294 1019 269 q 1060 349 1054 319 q 1067 404 1067 379 l 1067 639 q 1086 686 1067 667 q 1133 706 1106 706 q 1181 686 1161 706 q 1200 639 1200 667 l 1200 404 q 1183 298 1200 351 q 1132 201 1165 244 q 1051 129 1099 157 q 944 101 1004 101 l 311 101 q 210 133 254 104 q 134 204 165 161 q 86 300 103 247 q 69 404 69 353 l 69 639 q 89 686 69 667 q 136 706 108 706 q 183 686 164 706 q 203 639 203 667 l 203 404 l 203 404 m 418 807 q 439 856 418 835 l 571 989 l 575 992 q 622 1011 592 1011 q 669 992 653 1011 l 674 989 l 806 856 q 826 807 826 835 q 806 759 826 779 q 758 739 786 739 q 713 760 731 739 l 622 849 l 532 760 q 486 739 514 739 q 438 759 458 739 q 418 807 418 779 z "},"Û":{"ha":1269,"x_min":69,"x_max":1200,"o":"m 203 404 q 209 349 203 379 q 233 294 215 319 q 280 252 250 269 q 358 235 310 235 l 911 235 q 989 252 958 235 q 1037 294 1019 269 q 1060 349 1054 319 q 1067 404 1067 379 l 1067 640 q 1086 688 1067 668 q 1133 707 1106 707 q 1181 688 1161 707 q 1200 640 1200 668 l 1200 404 q 1183 298 1200 351 q 1132 201 1165 244 q 1051 129 1099 157 q 944 101 1004 101 l 311 101 q 210 133 254 104 q 134 204 165 161 q 86 300 103 247 q 69 404 69 353 l 69 640 q 89 688 69 668 q 136 707 108 707 q 183 688 164 707 q 203 640 203 668 l 203 404 l 203 404 m 443 807 q 464 856 443 835 l 596 989 l 600 992 q 647 1011 617 1011 q 694 992 678 1011 l 699 989 l 831 856 q 851 807 851 835 q 831 759 851 779 q 783 739 811 739 q 738 760 756 739 l 647 849 l 557 760 q 511 739 539 739 q 463 759 483 739 q 443 807 443 779 z "},"Ê":{"ha":1257,"x_min":69,"x_max":1188,"o":"m 1063 471 q 1110 451 1090 471 q 1129 404 1129 432 q 1110 357 1129 376 q 1063 338 1090 338 l 371 338 q 324 357 343 338 q 304 404 304 376 q 324 451 304 432 q 371 471 343 471 l 1063 471 l 1063 471 m 356 574 q 277 556 307 574 q 230 514 247 539 q 206 459 213 489 q 200 404 200 429 q 206 349 200 379 q 230 294 213 319 q 277 252 247 269 q 356 235 307 235 l 1121 235 q 1168 215 1149 235 q 1188 168 1188 196 q 1168 121 1188 140 q 1121 101 1149 101 l 311 101 q 210 129 254 101 q 134 201 165 157 q 86 299 103 244 q 69 404 69 353 q 87 510 69 457 q 138 608 104 564 q 218 679 171 651 q 325 707 265 707 l 1121 707 q 1168 688 1149 707 q 1188 640 1188 668 q 1168 593 1188 613 q 1121 574 1149 574 l 356 574 m 419 807 q 440 856 419 835 l 572 989 l 576 992 q 624 1011 593 1011 q 671 992 654 1011 l 675 989 l 807 856 q 828 807 828 835 q 808 759 828 779 q 760 739 788 739 q 714 760 732 739 l 624 849 l 533 760 q 488 739 515 739 q 440 759 460 739 q 419 807 419 779 z "},"Ÿ":{"ha":1256,"x_min":69,"x_max":1186,"o":"m 543 168 q 568 229 543 204 q 629 254 593 254 q 690 229 665 254 q 715 168 715 204 q 690 107 715 132 q 629 82 665 82 q 568 107 593 82 q 543 168 543 132 m 629 465 q 725 470 683 465 q 814 497 767 475 q 922 564 861 519 q 1072 688 982 608 q 1119 707 1096 707 q 1167 688 1147 707 q 1186 640 1186 668 q 1178 611 1186 625 q 1160 588 1171 597 q 1003 459 1072 510 q 874 378 935 408 q 754 336 813 349 q 629 324 696 324 q 499 335 558 324 q 381 378 440 347 q 253 459 321 408 q 96 588 185 510 q 77 611 85 597 q 69 640 69 625 q 89 688 69 668 q 136 707 108 707 q 161 701 150 707 q 183 688 172 696 q 333 565 272 610 q 441 499 393 521 q 532 471 489 476 q 629 465 575 465 m 713 849 q 738 910 713 885 q 799 935 763 935 q 860 910 835 935 q 885 849 885 885 q 860 788 885 813 q 799 763 835 763 q 738 788 763 763 q 713 849 713 813 m 372 849 q 397 910 372 885 q 458 935 422 935 q 519 910 494 935 q 544 849 544 885 q 519 788 544 813 q 458 763 494 763 q 397 788 422 763 q 372 849 372 813 z "},"¢":{"ha":1225,"x_min":69,"x_max":1156,"o":"m 558 103 q 583 164 558 139 q 644 189 608 189 q 706 164 681 189 q 731 103 731 139 q 706 42 731 67 q 644 17 681 17 q 583 42 608 17 q 558 103 558 67 m 558 706 q 583 767 558 742 q 644 792 608 792 q 706 767 681 792 q 731 706 731 742 q 706 644 731 669 q 644 619 681 619 q 583 644 608 619 q 558 706 558 669 m 69 404 q 84 476 69 443 q 124 535 99 510 q 184 574 150 560 q 257 589 218 589 l 1089 589 q 1136 569 1117 589 q 1156 522 1156 550 q 1136 475 1156 494 q 1089 456 1117 456 l 251 456 q 215 440 231 456 q 199 404 199 425 q 215 368 199 383 q 251 353 231 353 l 1089 353 q 1136 333 1117 353 q 1156 286 1156 314 q 1136 239 1156 258 q 1089 219 1117 219 l 257 219 q 184 234 218 219 q 124 274 150 249 q 84 332 99 299 q 69 404 69 365 z "},"ã":{"ha":1133,"x_min":69,"x_max":1064,"o":"m 188 126 q 136 101 167 101 q 89 121 108 101 q 69 168 69 140 q 83 208 69 193 l 421 663 q 483 715 444 694 q 567 735 522 735 q 646 717 608 735 q 707 667 683 699 l 1044 215 q 1058 194 1053 206 q 1064 168 1064 182 q 1044 121 1064 140 q 997 101 1025 101 q 944 128 964 101 l 621 560 q 597 584 611 571 q 567 597 582 597 q 537 584 551 597 q 514 560 522 571 l 188 126 m 686 767 q 617 779 649 767 q 561 815 585 792 q 528 855 539 838 q 509 884 517 872 q 492 901 501 896 q 467 907 483 907 q 428 894 444 907 q 407 861 413 881 q 384 824 401 839 q 343 810 367 810 q 296 829 315 810 q 276 876 276 849 q 281 900 276 889 q 349 1001 297 963 q 467 1040 400 1040 q 590 990 543 1040 q 624 949 613 967 q 643 921 635 932 q 660 905 651 910 q 686 900 669 900 q 724 913 708 900 q 746 946 740 926 q 769 983 751 968 q 810 997 786 997 q 857 978 838 997 q 876 931 876 958 q 872 907 876 917 q 804 806 856 844 q 686 767 753 767 z "},"`":{"ha":396,"x_min":25,"x_max":372,"o":"m 335 868 q 365 828 358 854 q 358 778 372 801 q 318 747 344 754 q 268 753 292 739 l 63 871 q 32 911 39 885 q 39 961 25 938 q 79 992 53 985 q 129 986 106 1000 l 335 868 l 335 868 z "},"¶":{"ha":472,"x_min":39,"x_max":461,"o":"m 421 707 q 449 695 438 707 q 461 667 461 683 q 449 638 461 650 q 421 626 438 626 l 406 626 l 406 142 q 394 113 406 125 q 365 101 382 101 q 337 113 349 101 q 325 142 325 125 l 325 626 l 253 626 l 253 142 q 241 113 253 125 q 213 101 229 101 q 184 113 196 101 q 172 142 172 125 l 172 440 q 121 451 144 440 q 78 480 97 461 q 49 522 60 499 q 39 574 39 546 q 49 624 39 600 q 78 667 60 649 q 121 697 97 686 q 172 707 144 707 l 421 707 l 421 707 z "},"´":{"ha":396,"x_min":25,"x_max":372,"o":"m 268 986 q 318 992 292 1000 q 358 961 344 985 q 365 911 372 938 q 335 871 358 885 l 129 753 q 79 747 106 739 q 39 778 53 754 q 32 828 25 801 q 63 868 39 854 l 268 986 z "},"À":{"ha":1133,"x_min":69,"x_max":1064,"o":"m 481 251 q 506 313 481 288 q 567 338 531 338 q 628 313 603 338 q 653 251 653 288 q 628 190 653 215 q 567 165 603 165 q 506 190 531 165 q 481 251 481 215 m 188 126 q 136 101 167 101 q 89 121 108 101 q 69 168 69 140 q 83 208 69 193 l 421 663 q 483 715 444 694 q 567 735 522 735 q 646 717 608 735 q 707 667 683 699 l 1044 215 q 1058 194 1053 206 q 1064 168 1064 182 q 1044 121 1064 140 q 997 101 1025 101 q 944 128 964 101 l 621 560 q 597 584 611 571 q 567 597 582 597 q 537 584 551 597 q 514 560 522 571 l 188 126 m 706 868 q 736 828 729 854 q 729 778 743 801 q 689 747 715 754 q 639 753 663 739 l 433 871 q 403 911 410 885 q 410 961 396 938 q 450 992 424 985 q 500 986 476 1000 l 706 868 l 706 868 z "},"Á":{"ha":1133,"x_min":69,"x_max":1064,"o":"m 481 251 q 506 313 481 288 q 567 338 531 338 q 628 313 603 338 q 653 251 653 288 q 628 190 653 215 q 567 165 603 165 q 506 190 531 165 q 481 251 481 215 m 188 126 q 136 101 167 101 q 89 121 108 101 q 69 168 69 140 q 83 208 69 193 l 421 663 q 483 715 444 694 q 567 735 522 735 q 646 717 608 735 q 707 667 683 699 l 1044 215 q 1058 194 1053 206 q 1064 168 1064 182 q 1044 121 1064 140 q 997 101 1025 101 q 944 128 964 101 l 621 560 q 597 584 611 571 q 567 597 582 597 q 537 584 551 597 q 514 560 522 571 l 188 126 m 640 986 q 690 992 664 1000 q 731 961 717 985 q 738 911 744 938 q 707 871 731 885 l 501 753 q 451 747 478 739 q 411 778 425 754 q 404 828 397 801 q 435 868 411 854 l 640 986 z "},"È":{"ha":1257,"x_min":69,"x_max":1188,"o":"m 1063 471 q 1110 451 1090 471 q 1129 404 1129 432 q 1110 357 1129 376 q 1063 338 1090 338 l 371 338 q 324 357 343 338 q 304 404 304 376 q 324 451 304 432 q 371 471 343 471 l 1063 471 l 1063 471 m 356 574 q 277 556 307 574 q 230 514 247 539 q 206 459 213 489 q 200 404 200 429 q 206 349 200 379 q 230 294 213 319 q 277 252 247 269 q 356 235 307 235 l 1121 235 q 1168 215 1149 235 q 1188 168 1188 196 q 1168 121 1188 140 q 1121 101 1149 101 l 311 101 q 210 129 254 101 q 134 201 165 157 q 86 299 103 244 q 69 404 69 353 q 87 510 69 457 q 138 608 104 564 q 218 679 171 651 q 325 707 265 707 l 1121 707 q 1168 688 1149 707 q 1188 640 1188 668 q 1168 593 1188 613 q 1121 574 1149 574 l 356 574 m 761 868 q 792 828 785 854 q 785 778 799 801 q 744 747 771 754 q 694 753 718 739 l 489 871 q 458 911 465 885 q 465 961 451 938 q 506 992 479 985 q 556 986 532 1000 l 761 868 l 761 868 z "},"É":{"ha":1257,"x_min":69,"x_max":1188,"o":"m 1063 471 q 1110 451 1090 471 q 1129 404 1129 432 q 1110 357 1129 376 q 1063 338 1090 338 l 371 338 q 324 357 343 338 q 304 404 304 376 q 324 451 304 432 q 371 471 343 471 l 1063 471 l 1063 471 m 356 574 q 277 556 307 574 q 230 514 247 539 q 206 459 213 489 q 200 404 200 429 q 206 349 200 379 q 230 294 213 319 q 277 252 247 269 q 356 235 307 235 l 1121 235 q 1168 215 1149 235 q 1188 168 1188 196 q 1168 121 1188 140 q 1121 101 1149 101 l 311 101 q 210 129 254 101 q 134 201 165 157 q 86 299 103 244 q 69 404 69 353 q 87 510 69 457 q 138 608 104 564 q 218 679 171 651 q 325 707 265 707 l 1121 707 q 1168 688 1149 707 q 1188 640 1188 668 q 1168 593 1188 613 q 1121 574 1149 574 l 356 574 m 742 986 q 792 992 765 1000 q 832 961 818 985 q 839 911 846 938 q 808 871 832 885 l 603 753 q 553 747 579 739 q 513 778 526 754 q 506 828 499 801 q 536 868 513 854 l 742 986 z "},"Ì":{"ha":272,"x_min":-35,"x_max":313,"o":"m 203 168 q 183 121 203 140 q 136 101 164 101 q 89 121 108 101 q 69 168 69 140 l 69 640 q 89 688 69 668 q 136 707 108 707 q 183 688 164 707 q 203 640 203 668 l 203 168 l 203 168 m 275 868 q 306 828 299 854 q 299 778 313 801 q 258 747 285 754 q 208 753 232 739 l 3 871 q -28 911 -21 885 q -21 961 -35 938 q 19 992 -7 985 q 69 986 46 1000 l 275 868 l 275 868 z "},"Í":{"ha":272,"x_min":-35,"x_max":313,"o":"m 203 168 q 183 121 203 140 q 136 101 164 101 q 89 121 108 101 q 69 168 69 140 l 69 640 q 89 688 69 668 q 136 707 108 707 q 183 688 164 707 q 203 640 203 668 l 203 168 l 203 168 m 208 986 q 258 992 232 1000 q 299 961 285 985 q 306 911 313 938 q 275 871 299 885 l 69 753 q 19 747 46 739 q -21 778 -7 754 q -28 828 -35 801 q 3 868 -21 854 l 208 986 z "},"Ò":{"ha":1269,"x_min":69,"x_max":1200,"o":"m 915 235 q 993 252 963 235 q 1041 294 1024 269 q 1065 349 1058 319 q 1071 404 1071 379 q 1065 459 1071 429 q 1041 514 1058 489 q 993 556 1024 539 q 915 574 963 574 l 354 574 q 276 556 306 574 q 228 514 246 539 q 205 459 211 489 q 199 404 199 429 q 205 349 199 379 q 228 294 211 319 q 276 252 246 269 q 354 235 306 235 l 915 235 l 915 235 m 1200 404 q 1183 298 1200 351 q 1132 201 1165 244 q 1051 129 1099 157 q 944 101 1004 101 l 311 101 q 210 133 254 104 q 134 204 165 161 q 86 300 103 247 q 69 404 69 353 q 87 510 69 457 q 138 608 104 564 q 218 679 171 651 q 325 707 265 707 l 958 707 q 1060 676 1015 704 q 1135 604 1104 647 q 1183 508 1167 561 q 1200 404 1200 456 m 765 868 q 796 828 789 854 q 789 778 803 801 q 749 747 775 754 q 699 753 722 739 l 493 871 q 463 911 469 885 q 469 961 456 938 q 510 992 483 985 q 560 986 536 1000 l 765 868 l 765 868 z "},"Ó":{"ha":1269,"x_min":69,"x_max":1200,"o":"m 915 235 q 993 252 963 235 q 1041 294 1024 269 q 1065 349 1058 319 q 1071 404 1071 379 q 1065 459 1071 429 q 1041 514 1058 489 q 993 556 1024 539 q 915 574 963 574 l 354 574 q 276 556 306 574 q 228 514 246 539 q 205 459 211 489 q 199 404 199 429 q 205 349 199 379 q 228 294 211 319 q 276 252 246 269 q 354 235 306 235 l 915 235 l 915 235 m 1200 404 q 1183 298 1200 351 q 1132 201 1165 244 q 1051 129 1099 157 q 944 101 1004 101 l 311 101 q 210 133 254 104 q 134 204 165 161 q 86 300 103 247 q 69 404 69 353 q 87 510 69 457 q 138 608 104 564 q 218 679 171 651 q 325 707 265 707 l 958 707 q 1060 676 1015 704 q 1135 604 1104 647 q 1183 508 1167 561 q 1200 404 1200 456 m 699 986 q 749 992 722 1000 q 789 961 775 985 q 796 911 803 938 q 765 871 789 885 l 560 753 q 510 747 536 739 q 469 778 483 754 q 463 828 456 801 q 493 868 469 854 l 699 986 z "},"Ù":{"ha":1269,"x_min":69,"x_max":1200,"o":"m 203 404 q 209 349 203 379 q 233 294 215 319 q 280 252 250 269 q 358 235 310 235 l 911 235 q 989 252 958 235 q 1037 294 1019 269 q 1060 349 1054 319 q 1067 404 1067 379 l 1067 640 q 1086 688 1067 668 q 1133 707 1106 707 q 1181 688 1161 707 q 1200 640 1200 668 l 1200 404 q 1183 298 1200 351 q 1132 201 1165 244 q 1051 129 1099 157 q 944 101 1004 101 l 311 101 q 210 133 254 104 q 134 204 165 161 q 86 300 103 247 q 69 404 69 353 l 69 640 q 89 688 69 668 q 136 707 108 707 q 183 688 164 707 q 203 640 203 668 l 203 404 l 203 404 m 765 868 q 796 828 789 854 q 789 778 803 801 q 749 747 775 754 q 699 753 722 739 l 493 871 q 463 911 469 885 q 469 961 456 938 q 510 992 483 985 q 560 986 536 1000 l 765 868 l 765 868 z "},"Ú":{"ha":1269,"x_min":69,"x_max":1200,"o":"m 203 404 q 209 349 203 379 q 233 294 215 319 q 280 252 250 269 q 358 235 310 235 l 911 235 q 989 252 958 235 q 1037 294 1019 269 q 1060 349 1054 319 q 1067 404 1067 379 l 1067 640 q 1086 688 1067 668 q 1133 707 1106 707 q 1181 688 1161 707 q 1200 640 1200 668 l 1200 404 q 1183 298 1200 351 q 1132 201 1165 244 q 1051 129 1099 157 q 944 101 1004 101 l 311 101 q 210 133 254 104 q 134 204 165 161 q 86 300 103 247 q 69 404 69 353 l 69 640 q 89 688 69 668 q 136 707 108 707 q 183 688 164 707 q 203 640 203 668 l 203 404 l 203 404 m 713 986 q 763 992 736 1000 q 803 961 789 985 q 810 911 817 938 q 779 871 803 885 l 574 753 q 524 747 550 739 q 483 778 497 754 q 476 828 469 801 q 507 868 483 854 l 713 986 z "},"à":{"ha":1133,"x_min":69,"x_max":1064,"o":"m 188 126 q 136 101 167 101 q 89 121 108 101 q 69 168 69 140 q 83 208 69 193 l 421 663 q 483 715 444 694 q 567 735 522 735 q 646 717 608 735 q 707 667 683 699 l 1044 215 q 1058 194 1053 206 q 1064 168 1064 182 q 1044 121 1064 140 q 997 101 1025 101 q 944 128 964 101 l 621 560 q 597 584 611 571 q 567 597 582 597 q 537 584 551 597 q 514 560 522 571 l 188 126 m 706 868 q 736 828 729 854 q 729 778 743 801 q 689 747 715 754 q 639 753 663 739 l 433 871 q 403 911 410 885 q 410 961 396 938 q 450 992 424 985 q 500 986 476 1000 l 706 868 l 706 868 z "},"á":{"ha":1133,"x_min":69,"x_max":1064,"o":"m 188 126 q 136 101 167 101 q 89 121 108 101 q 69 168 69 140 q 83 208 69 193 l 421 663 q 483 715 444 694 q 567 735 522 735 q 646 717 608 735 q 707 667 683 699 l 1044 215 q 1058 194 1053 206 q 1064 168 1064 182 q 1044 121 1064 140 q 997 101 1025 101 q 944 128 964 101 l 621 560 q 597 584 611 571 q 567 597 582 597 q 537 584 551 597 q 514 560 522 571 l 188 126 m 594 986 q 644 992 618 1000 q 685 961 671 985 q 692 911 699 938 q 661 871 685 885 l 456 753 q 406 747 432 739 q 365 778 379 754 q 358 828 351 801 q 389 868 365 854 l 594 986 z "},"è":{"ha":1257,"x_min":69,"x_max":1188,"o":"m 69 640 q 89 688 69 668 q 136 707 108 707 l 1121 707 q 1168 688 1149 707 q 1188 640 1188 668 q 1168 593 1188 613 q 1121 574 1149 574 l 136 574 q 89 593 108 574 q 69 640 69 613 m 239 101 q 178 115 208 101 q 124 151 147 128 q 85 208 100 175 q 69 283 69 242 l 69 408 q 91 458 69 446 q 158 471 113 471 l 1090 471 q 1138 451 1118 471 q 1157 404 1157 432 q 1138 357 1157 376 q 1090 338 1118 338 l 203 338 l 203 269 q 215 245 203 256 q 246 235 226 235 l 1121 235 q 1168 215 1149 235 q 1188 168 1188 196 q 1168 121 1188 140 q 1121 101 1149 101 l 239 101 m 750 868 q 781 828 774 854 q 774 778 788 801 q 733 747 760 754 q 683 753 707 739 l 478 871 q 447 911 454 885 q 454 961 440 938 q 494 992 468 985 q 544 986 521 1000 l 750 868 l 750 868 z "},"é":{"ha":1257,"x_min":69,"x_max":1188,"o":"m 69 640 q 89 688 69 668 q 136 707 108 707 l 1121 707 q 1168 688 1149 707 q 1188 640 1188 668 q 1168 593 1188 613 q 1121 574 1149 574 l 136 574 q 89 593 108 574 q 69 640 69 613 m 239 101 q 178 115 208 101 q 124 151 147 128 q 85 208 100 175 q 69 283 69 242 l 69 408 q 91 458 69 446 q 158 471 113 471 l 1090 471 q 1138 451 1118 471 q 1157 404 1157 432 q 1138 357 1157 376 q 1090 338 1118 338 l 203 338 l 203 269 q 215 245 203 256 q 246 235 226 235 l 1121 235 q 1168 215 1149 235 q 1188 168 1188 196 q 1168 121 1188 140 q 1121 101 1149 101 l 239 101 m 694 986 q 744 992 718 1000 q 785 961 771 985 q 792 911 799 938 q 761 871 785 885 l 556 753 q 506 747 532 739 q 465 778 479 754 q 458 828 451 801 q 489 868 465 854 l 694 986 z "},"ì":{"ha":272,"x_min":-35,"x_max":313,"o":"m 203 168 q 183 121 203 140 q 136 101 164 101 q 89 121 108 101 q 69 168 69 140 l 69 640 q 89 688 69 668 q 136 707 108 707 q 183 688 164 707 q 203 640 203 668 l 203 168 l 203 168 m 275 868 q 306 828 299 854 q 299 778 313 801 q 258 747 285 754 q 208 753 232 739 l 3 871 q -28 911 -21 885 q -21 961 -35 938 q 19 992 -7 985 q 69 986 46 1000 l 275 868 l 275 868 z "},"í":{"ha":272,"x_min":-37,"x_max":310,"o":"m 203 168 q 183 121 203 140 q 136 101 164 101 q 89 121 108 101 q 69 168 69 140 l 69 640 q 89 688 69 668 q 136 707 108 707 q 183 688 164 707 q 203 640 203 668 l 203 168 l 203 168 m 206 986 q 256 992 229 1000 q 296 961 282 985 q 303 911 310 938 q 272 871 296 885 l 67 753 q 17 747 43 739 q -24 778 -10 754 q -31 828 -37 801 q 0 868 -24 854 l 206 986 z "},"ò":{"ha":1269,"x_min":69,"x_max":1200,"o":"m 915 235 q 993 252 963 235 q 1041 294 1024 269 q 1065 349 1058 319 q 1071 404 1071 379 q 1065 459 1071 429 q 1041 514 1058 489 q 993 556 1024 539 q 915 574 963 574 l 354 574 q 276 556 306 574 q 228 514 246 539 q 205 459 211 489 q 199 404 199 429 q 205 349 199 379 q 228 294 211 319 q 276 252 246 269 q 354 235 306 235 l 915 235 l 915 235 m 1200 404 q 1183 298 1200 351 q 1132 201 1165 244 q 1051 129 1099 157 q 944 101 1004 101 l 311 101 q 210 133 254 104 q 134 204 165 161 q 86 300 103 247 q 69 404 69 353 q 87 510 69 457 q 138 608 104 564 q 218 679 171 651 q 325 707 265 707 l 958 707 q 1060 676 1015 704 q 1135 604 1104 647 q 1183 508 1167 561 q 1200 404 1200 456 m 765 868 q 796 828 789 854 q 789 778 803 801 q 749 747 775 754 q 699 753 722 739 l 493 871 q 463 911 469 885 q 469 961 456 938 q 510 992 483 985 q 560 986 536 1000 l 765 868 l 765 868 z "},"ó":{"ha":1269,"x_min":69,"x_max":1200,"o":"m 915 235 q 993 252 963 235 q 1041 294 1024 269 q 1065 349 1058 319 q 1071 404 1071 379 q 1065 459 1071 429 q 1041 514 1058 489 q 993 556 1024 539 q 915 574 963 574 l 354 574 q 276 556 306 574 q 228 514 246 539 q 205 459 211 489 q 199 404 199 429 q 205 349 199 379 q 228 294 211 319 q 276 252 246 269 q 354 235 306 235 l 915 235 l 915 235 m 1200 404 q 1183 298 1200 351 q 1132 201 1165 244 q 1051 129 1099 157 q 944 101 1004 101 l 311 101 q 210 133 254 104 q 134 204 165 161 q 86 300 103 247 q 69 404 69 353 q 87 510 69 457 q 138 608 104 564 q 218 679 171 651 q 325 707 265 707 l 958 707 q 1060 676 1015 704 q 1135 604 1104 647 q 1183 508 1167 561 q 1200 404 1200 456 m 699 986 q 749 992 722 1000 q 789 961 775 985 q 796 911 803 938 q 765 871 789 885 l 560 753 q 510 747 536 739 q 469 778 483 754 q 463 828 456 801 q 493 868 469 854 l 699 986 z "},"ù":{"ha":1269,"x_min":69,"x_max":1200,"o":"m 203 404 q 209 349 203 379 q 233 294 215 319 q 280 252 250 269 q 358 235 310 235 l 911 235 q 989 252 958 235 q 1037 294 1019 269 q 1060 349 1054 319 q 1067 404 1067 379 l 1067 639 q 1086 686 1067 667 q 1133 706 1106 706 q 1181 686 1161 706 q 1200 639 1200 667 l 1200 404 q 1183 298 1200 351 q 1132 201 1165 244 q 1051 129 1099 157 q 944 101 1004 101 l 311 101 q 210 133 254 104 q 134 204 165 161 q 86 300 103 247 q 69 404 69 353 l 69 639 q 89 686 69 667 q 136 706 108 706 q 183 686 164 706 q 203 639 203 667 l 203 404 l 203 404 m 779 868 q 810 828 803 854 q 803 778 817 801 q 763 747 789 754 q 713 753 736 739 l 507 871 q 476 911 483 885 q 483 961 469 938 q 524 992 497 985 q 574 986 550 1000 l 779 868 l 779 868 z "},"ú":{"ha":1269,"x_min":69,"x_max":1200,"o":"m 203 404 q 209 349 203 379 q 233 294 215 319 q 280 252 250 269 q 358 235 310 235 l 911 235 q 989 252 958 235 q 1037 294 1019 269 q 1060 349 1054 319 q 1067 404 1067 379 l 1067 639 q 1086 686 1067 667 q 1133 706 1106 706 q 1181 686 1161 706 q 1200 639 1200 667 l 1200 404 q 1183 298 1200 351 q 1132 201 1165 244 q 1051 129 1099 157 q 944 101 1004 101 l 311 101 q 210 133 254 104 q 134 204 165 161 q 86 300 103 247 q 69 404 69 353 l 69 639 q 89 686 69 667 q 136 706 108 706 q 183 686 164 706 q 203 639 203 667 l 203 404 l 203 404 m 699 986 q 749 992 722 1000 q 789 961 775 985 q 796 911 803 938 q 765 871 789 885 l 560 753 q 510 747 536 739 q 469 778 483 754 q 463 828 456 801 q 493 868 469 854 l 699 986 z "},"‹":{"ha":367,"x_min":19,"x_max":338,"o":"m 338 168 q 318 121 338 140 q 271 101 299 101 q 219 126 240 101 l 35 363 q 19 404 19 381 q 35 446 19 428 l 219 682 q 271 707 240 707 q 318 688 299 707 q 338 640 338 668 q 322 599 338 617 l 169 404 l 322 210 q 338 168 338 192 z "},"›":{"ha":367,"x_min":21,"x_max":339,"o":"m 21 168 q 36 210 21 192 l 189 404 l 36 599 q 21 640 21 617 q 40 688 21 668 q 88 707 60 707 q 139 682 118 707 l 324 446 q 339 404 339 428 q 324 363 339 381 l 139 126 q 88 101 118 101 q 40 121 60 101 q 21 168 21 140 z "},"«":{"ha":683,"x_min":19,"x_max":631,"o":"m 631 168 q 611 121 631 140 q 564 101 592 101 q 513 126 533 101 l 328 363 q 313 404 313 381 q 328 446 313 428 l 513 682 q 564 707 533 707 q 611 688 592 707 q 631 640 631 668 q 615 599 631 617 l 463 404 l 615 210 q 631 168 631 192 m 338 168 q 318 121 338 140 q 271 101 299 101 q 219 126 240 101 l 35 363 q 19 404 19 381 q 35 446 19 428 l 219 682 q 271 707 240 707 q 318 688 299 707 q 338 640 338 668 q 322 599 338 617 l 169 404 l 322 210 q 338 168 338 192 z "},"»":{"ha":683,"x_min":33,"x_max":644,"o":"m 326 168 q 342 210 326 192 l 494 404 l 342 599 q 326 640 326 617 q 346 688 326 668 q 393 707 365 707 q 444 682 424 707 l 629 446 q 644 404 644 428 q 629 363 644 381 l 444 126 q 393 101 424 101 q 346 121 365 101 q 326 168 326 140 m 33 168 q 49 210 33 192 l 201 404 l 49 599 q 33 640 33 617 q 53 688 33 668 q 100 707 72 707 q 151 682 131 707 l 336 446 q 351 404 351 428 q 336 363 351 381 l 151 126 q 100 101 131 101 q 53 121 72 101 q 33 168 33 140 z "},"£":{"ha":1228,"x_min":69,"x_max":1158,"o":"m 401 390 q 388 310 399 350 q 357 235 376 271 l 1092 235 q 1139 215 1119 235 q 1158 168 1158 196 q 1139 121 1158 140 q 1092 101 1119 101 l 136 101 q 89 121 108 101 q 69 168 69 140 q 88 214 69 194 q 131 233 106 233 q 195 249 169 233 q 237 288 221 264 q 260 338 253 311 q 268 390 267 365 l 110 390 q 81 402 93 390 q 69 431 69 414 q 81 459 69 447 q 110 471 93 471 l 268 471 l 268 522 q 283 594 268 561 q 322 653 297 628 q 381 692 347 678 q 453 707 414 707 l 685 707 q 732 688 713 707 q 751 640 751 668 q 732 593 751 613 q 685 574 713 574 l 454 574 q 417 559 433 574 q 401 522 401 544 l 401 471 l 713 471 q 741 459 729 471 q 753 431 753 447 q 741 402 753 414 q 713 390 729 390 l 401 390 z "},"¡":{"ha":272,"x_min":50,"x_max":222,"o":"m 222 621 q 197 560 222 585 q 136 535 172 535 q 75 560 100 535 q 50 621 50 585 q 75 682 50 657 q 136 707 100 707 q 197 682 172 707 q 222 621 222 657 m 69 385 q 89 432 69 413 q 136 451 108 451 q 183 432 164 451 q 203 385 203 413 l 203 149 q 183 101 203 121 q 136 82 164 82 q 89 101 108 82 q 69 149 69 121 l 69 385 l 69 385 z "},"¿":{"ha":1142,"x_min":69,"x_max":1072,"o":"m 739 621 q 714 560 739 585 q 653 535 689 535 q 592 560 617 535 q 567 621 567 585 q 592 682 567 657 q 653 707 617 707 q 714 682 689 707 q 739 621 739 657 m 1072 267 q 1057 194 1072 228 q 1015 136 1042 161 q 954 97 989 111 q 881 82 919 82 l 257 82 q 184 97 218 82 q 124 136 150 111 q 84 194 99 161 q 69 267 69 228 q 84 339 69 306 q 124 397 99 372 q 184 437 150 422 q 257 451 218 451 l 672 451 q 719 432 700 451 q 739 385 739 413 q 719 338 739 357 q 672 318 700 318 l 251 318 q 215 303 231 318 q 199 267 199 289 q 215 231 199 246 q 251 215 231 215 l 890 215 q 924 232 910 218 q 939 267 939 246 q 958 314 939 294 q 1006 333 978 333 q 1053 314 1033 333 q 1072 267 1072 294 z "},"Å":{"ha":1133,"x_min":69,"x_max":1064,"o":"m 501 896 q 520 849 501 868 q 567 831 539 831 q 612 849 593 831 q 631 896 631 868 q 612 941 631 922 q 567 960 593 960 q 520 941 539 960 q 501 896 501 922 m 438 896 q 448 946 438 922 q 476 987 458 969 q 517 1015 493 1004 q 567 1025 540 1025 q 617 1015 593 1025 q 658 987 640 1004 q 685 946 675 969 q 696 896 696 922 q 685 846 696 869 q 658 805 675 822 q 617 777 640 788 q 567 767 593 767 q 517 777 540 767 q 476 805 493 788 q 448 846 458 822 q 438 896 438 869 m 481 251 q 506 313 481 288 q 567 338 531 338 q 628 313 603 338 q 653 251 653 288 q 628 190 653 215 q 567 165 603 165 q 506 190 531 165 q 481 251 481 215 m 188 126 q 136 101 167 101 q 89 121 108 101 q 69 168 69 140 q 83 208 69 193 l 421 663 q 483 715 444 694 q 567 735 522 735 q 646 717 608 735 q 707 667 683 699 l 1044 215 q 1058 194 1053 206 q 1064 168 1064 182 q 1044 121 1064 140 q 997 101 1025 101 q 944 128 964 101 l 621 560 q 597 584 611 571 q 567 597 582 597 q 537 584 551 597 q 514 560 522 571 l 188 126 z "},"™":{"ha":1036,"x_min":49,"x_max":958,"o":"m 450 707 q 474 697 464 707 q 485 671 485 686 q 474 647 485 657 q 450 638 464 638 l 303 638 l 303 492 q 292 466 303 476 q 267 456 282 456 q 242 466 251 456 q 232 492 232 476 l 232 638 l 82 638 q 58 648 68 638 q 49 671 49 658 q 59 697 49 686 q 85 707 69 707 l 450 707 l 450 707 m 958 492 q 948 466 958 476 q 924 456 938 456 q 898 466 908 456 q 888 492 888 476 l 888 608 l 771 475 q 750 460 763 465 q 725 456 738 456 q 678 476 696 456 l 561 608 l 561 492 q 551 466 561 476 q 525 456 540 456 q 501 466 511 456 q 490 492 490 476 l 490 647 q 506 689 490 671 q 546 707 521 707 q 573 700 561 707 q 593 682 585 693 l 718 540 q 725 538 721 538 q 731 540 728 538 l 854 681 q 876 699 865 692 q 903 707 888 707 q 944 689 929 707 q 958 647 958 671 l 958 492 z "},"å":{"ha":1133,"x_min":69,"x_max":1064,"o":"m 501 896 q 520 849 501 868 q 567 831 539 831 q 612 849 593 831 q 631 896 631 868 q 612 941 631 922 q 567 960 593 960 q 520 941 539 960 q 501 896 501 922 m 438 896 q 448 946 438 922 q 476 987 458 969 q 517 1015 493 1004 q 567 1025 540 1025 q 617 1015 593 1025 q 658 987 640 1004 q 685 946 675 969 q 696 896 696 922 q 685 846 696 869 q 658 805 675 822 q 617 777 640 788 q 567 767 593 767 q 517 777 540 767 q 476 805 493 788 q 448 846 458 822 q 438 896 438 869 m 188 126 q 136 101 167 101 q 89 121 108 101 q 69 168 69 140 q 83 208 69 193 l 421 663 q 483 715 444 694 q 567 735 522 735 q 646 717 608 735 q 707 667 683 699 l 1044 215 q 1058 194 1053 206 q 1064 168 1064 182 q 1044 121 1064 140 q 997 101 1025 101 q 944 128 964 101 l 621 560 q 597 584 611 571 q 567 597 582 597 q 537 584 551 597 q 514 560 522 571 l 188 126 z "},"©":{"ha":1269,"x_min":90,"x_max":1185,"o":"m 206 404 q 220 476 206 443 q 260 535 235 510 q 320 574 286 560 q 393 589 354 589 l 947 589 q 994 569 975 589 q 1014 522 1014 550 q 994 475 1014 494 q 947 456 975 456 l 388 456 q 351 440 367 456 q 335 404 335 425 q 351 368 335 383 q 388 353 367 353 l 947 353 q 994 333 975 353 q 1014 286 1014 314 q 994 239 1014 258 q 947 219 975 219 l 393 219 q 320 234 354 219 q 260 274 286 249 q 220 332 235 299 q 206 404 206 365 m 393 649 q 299 629 343 649 q 221 576 254 610 q 168 499 188 543 q 149 404 149 454 q 168 310 149 354 q 221 232 188 265 q 299 179 254 199 q 393 160 343 160 l 882 160 q 976 179 932 160 q 1054 232 1021 199 q 1107 310 1088 265 q 1126 404 1126 354 q 1107 499 1126 454 q 1054 576 1088 543 q 976 629 1021 610 q 882 649 932 649 l 393 649 l 393 649 m 393 101 q 276 125 331 101 q 179 190 221 149 q 114 287 138 232 q 90 404 90 342 q 114 522 90 467 q 179 618 138 576 q 276 683 221 660 q 393 707 331 707 l 882 707 q 999 683 944 707 q 1096 618 1054 660 q 1161 522 1138 576 q 1185 404 1185 467 q 1161 287 1185 342 q 1096 190 1138 232 q 999 125 1054 149 q 882 101 944 101 l 393 101 l 393 101 z "},"®":{"ha":1269,"x_min":90,"x_max":1185,"o":"m 842 421 q 858 426 853 421 q 863 438 863 431 q 858 450 863 444 q 842 456 853 456 l 457 456 q 426 446 440 456 q 407 421 413 436 l 842 421 m 1000 467 q 992 410 1000 431 q 968 376 983 390 q 1001 333 989 357 q 1014 286 1014 310 q 994 239 1014 258 q 947 219 975 219 q 906 234 919 219 q 879 263 892 249 q 855 277 871 272 q 822 284 839 282 q 791 287 806 286 q 768 288 776 288 l 404 288 l 404 286 q 385 239 404 258 q 338 219 365 219 q 292 239 310 219 q 275 286 275 258 l 275 404 q 290 476 275 443 q 330 535 304 510 q 390 574 356 560 q 463 589 424 589 l 878 589 q 926 576 904 589 q 965 545 949 564 q 991 506 982 526 q 1000 467 1000 485 m 393 649 q 299 629 343 649 q 221 576 254 610 q 168 499 188 543 q 149 404 149 454 q 168 310 149 354 q 221 232 188 265 q 299 179 254 199 q 393 160 343 160 l 882 160 q 976 179 932 160 q 1054 232 1021 199 q 1107 310 1088 265 q 1126 404 1126 354 q 1107 499 1126 454 q 1054 576 1088 543 q 976 629 1021 610 q 882 649 932 649 l 393 649 l 393 649 m 393 101 q 276 125 331 101 q 179 190 221 149 q 114 287 138 232 q 90 404 90 342 q 114 522 90 467 q 179 618 138 576 q 276 683 221 660 q 393 707 331 707 l 882 707 q 999 683 944 707 q 1096 618 1054 660 q 1161 522 1138 576 q 1185 404 1185 467 q 1161 287 1185 342 q 1096 190 1138 232 q 999 125 1054 149 q 882 101 944 101 l 393 101 l 393 101 z "},"¬":{"ha":774,"x_min":19,"x_max":758,"o":"m 758 301 q 741 254 758 274 q 696 235 724 235 q 649 254 668 235 q 629 301 629 274 l 629 419 q 613 456 629 440 q 576 471 597 471 l 86 471 q 39 490 58 471 q 19 538 19 510 q 39 585 19 565 q 86 604 58 604 l 571 604 q 644 590 610 604 q 703 550 678 575 q 744 492 729 525 q 758 419 758 458 l 758 301 z "},"Ø":{"ha":1269,"x_min":69,"x_max":1200,"o":"m 199 404 q 200 376 199 390 q 206 347 201 363 l 989 558 q 915 574 958 574 l 354 574 q 276 556 306 574 q 228 514 246 539 q 205 459 211 489 q 199 404 199 429 m 244 274 q 289 245 263 256 q 354 235 315 235 l 915 235 q 993 252 963 235 q 1041 294 1024 269 q 1065 349 1058 319 q 1071 404 1071 379 q 1067 447 1071 424 q 1053 492 1063 469 l 244 274 m 1200 404 q 1183 298 1200 351 q 1132 201 1165 244 q 1051 129 1099 157 q 944 101 1004 101 l 311 101 q 210 133 254 104 q 134 204 165 161 q 86 300 103 247 q 69 404 69 353 q 87 510 69 457 q 138 608 104 564 q 218 679 171 651 q 325 707 265 707 l 958 707 q 1060 676 1015 704 q 1135 604 1104 647 q 1183 508 1167 561 q 1200 404 1200 456 z "},"ø":{"ha":1269,"x_min":69,"x_max":1200,"o":"m 199 404 q 200 376 199 390 q 206 347 201 363 l 989 558 q 915 574 958 574 l 354 574 q 276 556 306 574 q 228 514 246 539 q 205 459 211 489 q 199 404 199 429 m 244 274 q 289 245 263 256 q 354 235 315 235 l 915 235 q 993 252 963 235 q 1041 294 1024 269 q 1065 349 1058 319 q 1071 404 1071 379 q 1067 447 1071 424 q 1053 492 1063 469 l 244 274 m 1200 404 q 1183 298 1200 351 q 1132 201 1165 244 q 1051 129 1099 157 q 944 101 1004 101 l 311 101 q 210 133 254 104 q 134 204 165 161 q 86 300 103 247 q 69 404 69 353 q 87 510 69 457 q 138 608 104 564 q 218 679 171 651 q 325 707 265 707 l 958 707 q 1060 676 1015 704 q 1135 604 1104 647 q 1183 508 1167 561 q 1200 404 1200 456 z "},",":{"ha":272,"x_min":26,"x_max":203,"o":"m 203 90 q 191 24 203 58 q 144 -42 179 -10 q 121 -60 133 -53 q 93 -67 108 -67 q 46 -47 65 -67 q 26 0 26 -28 q 49 50 26 31 q 54 57 50 51 q 61 75 58 63 q 67 110 64 88 q 69 168 69 132 q 89 215 69 196 q 136 235 108 235 q 183 215 164 235 q 203 168 203 196 l 203 90 z "},"‚":{"ha":272,"x_min":26,"x_max":203,"o":"m 203 90 q 191 24 203 58 q 144 -42 179 -10 q 121 -60 133 -53 q 93 -67 108 -67 q 46 -47 65 -67 q 26 0 26 -28 q 49 50 26 31 q 54 57 50 51 q 61 75 58 63 q 67 110 64 88 q 69 168 69 132 q 89 215 69 196 q 136 235 108 235 q 183 215 164 235 q 203 168 203 196 l 203 90 z "},"„":{"ha":490,"x_min":53,"x_max":447,"o":"m 229 90 q 217 24 229 58 q 171 -42 206 -10 q 147 -60 160 -53 q 119 -67 135 -67 q 72 -47 92 -67 q 53 0 53 -28 q 75 50 53 31 q 81 57 76 51 q 88 75 85 63 q 93 110 90 88 q 96 168 96 132 q 115 215 96 196 q 163 235 135 235 q 210 215 190 235 q 229 168 229 196 l 229 90 m 447 90 q 435 24 447 58 q 389 -42 424 -10 q 365 -60 378 -53 q 338 -67 353 -67 q 290 -47 310 -67 q 271 0 271 -28 q 293 50 271 31 q 299 57 294 51 q 306 75 303 63 q 311 110 308 88 q 314 168 314 132 q 333 215 314 196 q 381 235 353 235 q 428 215 408 235 q 447 168 447 196 l 447 90 z "},"Ç":{"ha":1271,"x_min":69,"x_max":1201,"o":"m 69 404 q 87 510 69 457 q 138 608 104 564 q 218 679 171 651 q 325 707 265 707 l 1135 707 q 1182 688 1163 707 q 1201 640 1201 668 q 1182 593 1201 613 q 1135 574 1163 574 l 354 574 q 276 556 306 574 q 228 514 246 539 q 205 459 211 489 q 199 404 199 429 q 205 349 199 379 q 228 294 211 319 q 276 252 246 269 q 354 235 306 235 l 1135 235 q 1182 215 1163 235 q 1201 168 1201 196 q 1182 121 1201 140 q 1135 101 1163 101 l 722 101 l 722 90 q 710 24 722 58 q 664 -42 699 -10 q 640 -60 653 -53 q 613 -67 628 -67 q 565 -47 585 -67 q 546 0 546 -28 q 568 50 546 31 q 576 63 571 53 q 585 101 582 72 l 311 101 q 210 129 254 101 q 134 201 165 157 q 86 299 103 244 q 69 404 69 353 z "},"ç":{"ha":1271,"x_min":69,"x_max":1201,"o":"m 69 404 q 87 510 69 457 q 138 608 104 564 q 218 679 171 651 q 325 707 265 707 l 1135 707 q 1182 688 1163 707 q 1201 640 1201 668 q 1182 593 1201 613 q 1135 574 1163 574 l 354 574 q 276 556 306 574 q 228 514 246 539 q 205 459 211 489 q 199 404 199 429 q 205 349 199 379 q 228 294 211 319 q 276 252 246 269 q 354 235 306 235 l 1135 235 q 1182 215 1163 235 q 1201 168 1201 196 q 1182 121 1201 140 q 1135 101 1163 101 l 722 101 l 722 90 q 710 24 722 58 q 664 -42 699 -10 q 640 -60 653 -53 q 613 -67 628 -67 q 565 -47 585 -67 q 546 0 546 -28 q 568 50 546 31 q 576 63 571 53 q 585 101 582 72 l 311 101 q 210 129 254 101 q 134 201 165 157 q 86 299 103 244 q 69 404 69 353 z "},"]":{"ha":1133,"x_min":69,"x_max":1064,"o":"m 668 682 q 743 590 708 633 q 819 496 778 547 q 913 378 860 444 q 1044 215 967 311 q 1058 194 1051 206 q 1064 168 1064 182 q 1044 121 1064 140 q 997 101 1025 101 q 944 128 963 101 l 879 208 l 324 208 q 270 201 299 208 q 211 156 242 194 l 192 131 l 190 131 l 188 126 q 136 101 167 101 q 89 121 108 101 q 69 168 69 140 q 83 208 69 194 l 142 281 q 204 326 165 311 q 290 342 243 342 l 772 342 l 567 596 q 550 640 550 614 q 569 688 550 668 q 617 707 589 707 q 668 682 647 707 z "},"€":{"ha":1257,"x_min":69,"x_max":1188,"o":"m 1121 707 q 1168 688 1149 707 q 1188 640 1188 668 q 1168 593 1188 613 q 1121 574 1149 574 l 246 574 q 215 563 226 574 q 203 539 203 553 l 203 513 l 922 513 q 951 501 939 513 q 963 472 963 489 q 951 444 963 456 q 922 432 939 432 l 158 432 q 91 444 113 432 q 69 494 69 457 l 69 525 q 85 600 69 567 q 124 657 100 633 q 178 694 147 681 q 239 707 208 707 l 1121 707 m 239 101 q 178 115 208 101 q 124 151 147 128 q 85 208 100 175 q 69 283 69 242 l 69 314 q 91 364 69 351 q 158 376 113 376 l 853 376 q 881 365 869 376 q 893 336 893 353 q 881 308 893 319 q 853 296 869 296 l 203 296 l 203 269 q 215 245 203 256 q 246 235 226 235 l 1121 235 q 1168 215 1149 235 q 1188 168 1188 196 q 1168 121 1188 140 q 1121 101 1149 101 l 239 101 z "},"Þ":{"ha":1225,"x_min":69,"x_max":1156,"o":"m 203 456 l 203 353 l 974 353 q 1010 368 994 353 q 1026 404 1026 383 q 1010 440 1026 425 q 974 456 994 456 l 203 456 m 1156 404 q 1141 332 1156 365 q 1101 274 1126 299 q 1041 234 1075 249 q 968 219 1007 219 l 203 219 l 203 168 q 183 121 203 140 q 136 101 164 101 q 89 121 108 101 q 69 168 69 140 l 69 640 q 89 688 69 668 q 136 707 108 707 q 183 688 164 707 q 203 640 203 668 l 203 589 l 968 589 q 1041 574 1007 589 q 1101 535 1075 560 q 1141 476 1126 510 q 1156 404 1156 443 z "},"þ":{"ha":1225,"x_min":69,"x_max":1156,"o":"m 1156 404 q 1141 332 1156 365 q 1101 274 1126 299 q 1041 234 1075 249 q 968 219 1007 219 l 203 219 l 203 168 q 183 121 203 140 q 136 101 164 101 q 89 121 108 101 q 69 168 69 140 l 69 286 q 89 333 69 314 q 136 353 108 353 l 974 353 q 1010 368 994 353 q 1026 404 1026 383 q 1010 440 1026 425 q 974 456 994 456 l 136 456 q 89 475 108 456 q 69 522 69 494 l 69 640 q 89 688 69 668 q 136 707 108 707 q 183 688 164 707 q 203 640 203 668 l 203 589 l 968 589 q 1041 574 1007 589 q 1101 535 1075 560 q 1141 476 1126 510 q 1156 404 1156 443 z "},"Ð":{"ha":1271,"x_min":-44,"x_max":1201,"o":"m 203 390 l 203 235 l 917 235 q 994 252 964 235 q 1042 294 1025 269 q 1066 349 1060 319 q 1072 404 1072 379 q 1066 459 1072 429 q 1042 514 1060 489 q 994 556 1025 539 q 917 574 964 574 l 203 574 l 203 471 l 599 471 q 627 459 615 471 q 639 431 639 447 q 627 402 639 414 q 599 390 615 390 l 203 390 m 1201 404 q 1185 300 1201 353 q 1137 204 1168 247 q 1061 133 1106 161 q 960 101 1017 104 l 136 101 q 89 121 108 101 q 69 168 69 140 l 69 390 l -4 390 q -33 402 -21 390 q -44 431 -44 414 q -33 459 -44 447 q -4 471 -21 471 l 69 471 l 69 640 q 89 688 69 668 q 136 707 108 707 l 946 707 q 1053 679 1006 707 q 1133 608 1100 651 q 1184 510 1167 564 q 1201 404 1201 457 z "},"ð":{"ha":1271,"x_min":-44,"x_max":1201,"o":"m 203 390 l 203 235 l 917 235 q 994 252 964 235 q 1042 294 1025 269 q 1066 349 1060 319 q 1072 404 1072 379 q 1066 459 1072 429 q 1042 514 1060 489 q 994 556 1025 539 q 917 574 964 574 l 136 574 q 89 593 108 574 q 69 640 69 613 q 89 688 69 668 q 136 707 108 707 l 946 707 q 1053 679 1006 707 q 1133 608 1100 651 q 1184 510 1167 564 q 1201 404 1201 457 q 1185 300 1201 353 q 1137 204 1168 247 q 1061 133 1106 161 q 960 101 1017 104 l 136 101 q 89 121 108 101 q 69 168 69 140 l 69 390 l -4 390 q -33 402 -21 390 q -44 431 -44 414 q -33 459 -44 447 q -4 471 -21 471 l 599 471 q 627 459 615 471 q 639 431 639 447 q 627 402 639 414 q 599 390 615 390 l 203 390 z "},"Ý":{"ha":1256,"x_min":69,"x_max":1186,"o":"m 543 168 q 568 229 543 204 q 629 254 593 254 q 690 229 665 254 q 715 168 715 204 q 690 107 715 132 q 629 82 665 82 q 568 107 593 82 q 543 168 543 132 m 629 465 q 725 470 683 465 q 814 497 767 475 q 922 564 861 519 q 1072 688 982 608 q 1119 707 1096 707 q 1167 688 1147 707 q 1186 640 1186 668 q 1178 611 1186 625 q 1160 588 1171 597 q 1003 459 1072 510 q 874 378 935 408 q 754 336 813 349 q 629 324 696 324 q 499 335 558 324 q 381 378 440 347 q 253 459 321 408 q 96 588 185 510 q 77 611 85 597 q 69 640 69 625 q 89 688 69 668 q 136 707 108 707 q 161 701 150 707 q 183 688 172 696 q 333 565 272 610 q 441 499 393 521 q 532 471 489 476 q 629 465 575 465 m 699 986 q 749 992 722 1000 q 789 961 775 985 q 796 911 803 938 q 765 871 789 885 l 560 753 q 510 747 536 739 q 469 778 483 754 q 463 828 456 801 q 493 868 469 854 l 699 986 z "},"ý":{"ha":1256,"x_min":69,"x_max":1186,"o":"m 694 168 q 675 121 694 140 q 628 101 656 101 q 581 121 600 101 q 561 168 561 140 l 561 338 q 458 351 508 338 q 353 395 408 365 q 236 472 299 425 q 96 588 174 519 q 77 611 85 597 q 69 640 69 625 q 89 688 69 668 q 136 707 108 707 q 161 701 150 707 q 183 688 172 696 q 333 566 272 610 q 441 501 393 522 q 532 476 489 481 q 629 471 575 471 q 725 475 683 471 q 814 500 767 479 q 922 565 861 521 q 1072 688 982 608 q 1119 707 1096 707 q 1167 688 1147 707 q 1186 640 1186 668 q 1178 611 1186 625 q 1160 588 1171 597 q 1019 473 1083 521 q 899 395 956 425 q 792 351 843 365 q 694 338 742 338 l 694 168 l 694 168 m 699 986 q 749 992 722 1000 q 789 961 775 985 q 796 911 803 938 q 765 871 789 885 l 560 753 q 510 747 536 739 q 469 778 483 754 q 463 828 456 801 q 493 868 469 854 l 699 986 z "},"Š":{"ha":1275,"x_min":69,"x_max":1206,"o":"m 831 943 q 810 894 831 915 l 678 761 l 674 758 q 626 739 657 739 q 579 758 596 739 l 575 761 l 443 894 q 422 943 422 915 q 442 991 422 971 q 490 1011 463 1011 q 536 990 518 1011 l 626 901 l 717 990 q 763 1011 735 1011 q 810 991 790 1011 q 831 943 831 971 m 254 338 q 182 352 215 338 q 124 392 149 367 q 84 450 99 417 q 69 522 69 483 q 84 594 69 561 q 124 653 99 628 q 182 692 149 678 q 254 707 215 707 l 1097 707 q 1144 688 1125 707 q 1164 640 1164 668 q 1144 593 1164 613 q 1097 574 1125 574 l 251 574 q 215 559 231 574 q 199 522 199 544 q 215 486 199 501 q 251 471 231 471 l 1019 471 q 1092 456 1058 471 q 1151 417 1126 442 q 1191 358 1176 392 q 1206 285 1206 324 q 1191 213 1206 246 q 1151 154 1176 179 q 1092 115 1126 129 q 1019 101 1058 101 l 178 101 q 131 121 150 101 q 111 168 111 140 q 131 215 111 196 q 178 235 150 235 l 1025 235 q 1061 249 1046 235 q 1076 285 1076 264 q 1061 322 1076 307 q 1025 338 1046 338 l 254 338 l 254 338 z "},"š":{"ha":1275,"x_min":69,"x_max":1206,"o":"m 831 943 q 810 894 831 915 l 678 761 l 674 758 q 626 739 657 739 q 579 758 596 739 l 575 761 l 443 894 q 422 943 422 915 q 442 991 422 971 q 490 1011 463 1011 q 536 990 518 1011 l 626 901 l 717 990 q 763 1011 735 1011 q 810 991 790 1011 q 831 943 831 971 m 254 338 q 182 352 215 338 q 124 392 149 367 q 84 450 99 417 q 69 522 69 483 q 84 594 69 561 q 124 653 99 628 q 182 692 149 678 q 254 707 215 707 l 1097 707 q 1144 688 1125 707 q 1164 640 1164 668 q 1144 593 1164 613 q 1097 574 1125 574 l 251 574 q 215 559 231 574 q 199 522 199 544 q 215 486 199 501 q 251 471 231 471 l 1019 471 q 1092 456 1058 471 q 1151 417 1126 442 q 1191 358 1176 392 q 1206 285 1206 324 q 1191 213 1206 246 q 1151 154 1176 179 q 1092 115 1126 129 q 1019 101 1058 101 l 178 101 q 131 121 150 101 q 111 168 111 140 q 131 215 111 196 q 178 235 150 235 l 1025 235 q 1061 249 1046 235 q 1076 285 1076 264 q 1061 322 1076 307 q 1025 338 1046 338 l 254 338 l 254 338 z "}}}
